<svg viewBox="0 0 24 24" xmlns="http://www.w3.org/2000/svg"><path d="M12.805 6.5H9.183a.765.765 0 00-.768.762.765.765 0 00.768.762h2.085c.485 0 .878.39.878.87v2.031c0 .48-.393.87-.878.87H9.293a.874.874 0 00-.877.87v4.28c0 .48.393.87.878.87h3.732a.656.656 0 00.658-.653.656.656 0 00-.659-.652h-2.268a.874.874 0 01-.878-.87v-1.597c0-.48.393-.87.878-.87h2.049c.485 0 .878-.39.878-.87V7.37a.874.874 0 00-.878-.87zm-7.902 0H3.877A.877.877 0 003 7.377v.219c0 .362.295.656.659.656.363 0 .658.294.658.657v3.139a.658.658 0 01-.659.657.658.658 0 00-.658.657v3.577c0 .483.393.876.878.876h2.195a.877.877 0 00.878-.876v-3.65a.585.585 0 00-.585-.584.585.585 0 01-.585-.584V7.376a.877.877 0 00-.878-.876zM17.74 7.942h-1.853a.731.731 0 01-.741-.721c0-.398.332-.72.741-.72h3.26c.492 0 .89.386.89.864v4.259c0 .268.128.521.347.685l.269.202a.858.858 0 01.347.685v3.755a.877.877 0 01-.89.864h-4.223a.731.731 0 01-.741-.72c0-.398.332-.721.741-.721h1.852c.491 0 .89-.387.89-.865v-1.585a.877.877 0 00-.89-.865h-1.852a.731.731 0 01-.741-.72c0-.399.332-.722.741-.722h1.852c.491 0 .89-.387.89-.865V8.807a.877.877 0 00-.89-.865h.001z"></path></svg>