<svg width="32" height="32" viewBox="0 0 32 32" fill="currentColor" xmlns="http://www.w3.org/2000/svg">
<path fill-rule="evenodd" clip-rule="evenodd" d="M12.8623 12.7763C12.9339 12.4739 13 11.9336 13 11C13 10.0664 12.9339 9.52605 12.8623 9.22373C12.8563 9.19815 12.8504 9.17535 12.8449 9.15511C12.8247 9.14958 12.8018 9.14374 12.7763 9.13768C12.4739 9.06609 11.9336 9 11 9C10.0664 9 9.52605 9.06609 9.22373 9.13768C9.19815 9.14374 9.17535 9.14958 9.15511 9.15511C9.14958 9.17535 9.14374 9.19815 9.13768 9.22373C9.06609 9.52605 9 10.0664 9 11C9 11.9336 9.06609 12.4739 9.13768 12.7763C9.14374 12.8018 9.14958 12.8247 9.15511 12.8449C9.17535 12.8504 9.19815 12.8563 9.22373 12.8623C9.52605 12.9339 10.0664 13 11 13C11.9336 13 12.4739 12.9339 12.7763 12.8623C12.8018 12.8563 12.8247 12.8504 12.8449 12.8449C12.8504 12.8247 12.8563 12.8018 12.8623 12.7763ZM15 11C15 13.007 14.725 13.861 14.293 14.293C13.861 14.725 13.007 15 11 15C8.993 15 8.139 14.725 7.707 14.293C7.275 13.861 7 13.007 7 11C7 8.993 7.275 8.139 7.707 7.707C8.139 7.275 8.993 7 11 7C13.007 7 13.861 7.275 14.293 7.707C14.725 8.139 15 8.993 15 11Z"/>
<path fill-rule="evenodd" clip-rule="evenodd" d="M12.8623 22.7763C12.9339 22.4739 13 21.9336 13 21C13 20.0664 12.9339 19.5261 12.8623 19.2237C12.8563 19.1982 12.8504 19.1753 12.8449 19.1551C12.8247 19.1496 12.8018 19.1437 12.7763 19.1377C12.4739 19.0661 11.9336 19 11 19C10.0664 19 9.52605 19.0661 9.22373 19.1377C9.19815 19.1437 9.17535 19.1496 9.15511 19.1551C9.14958 19.1753 9.14374 19.1982 9.13768 19.2237C9.06609 19.5261 9 20.0664 9 21C9 21.9336 9.06609 22.4739 9.13768 22.7763C9.14374 22.8018 9.14958 22.8247 9.15511 22.8449C9.17535 22.8504 9.19815 22.8563 9.22373 22.8623C9.52605 22.9339 10.0664 23 11 23C11.9336 23 12.4739 22.9339 12.7763 22.8623C12.8018 22.8563 12.8247 22.8504 12.8449 22.8449C12.8504 22.8247 12.8563 22.8018 12.8623 22.7763ZM15 21C15 23.007 14.725 23.861 14.293 24.293C13.861 24.725 13.007 25 11 25C8.993 25 8.139 24.725 7.707 24.293C7.275 23.861 7 23.007 7 21C7 18.993 7.275 18.139 7.707 17.707C8.139 17.275 8.993 17 11 17C13.007 17 13.861 17.275 14.293 17.707C14.725 18.139 15 18.993 15 21Z"/>
<path fill-rule="evenodd" clip-rule="evenodd" d="M22.8623 22.7763C22.9339 22.4739 23 21.9336 23 21C23 20.0664 22.9339 19.5261 22.8623 19.2237C22.8563 19.1982 22.8504 19.1753 22.8449 19.1551C22.8247 19.1496 22.8018 19.1437 22.7763 19.1377C22.4739 19.0661 21.9336 19 21 19C20.0664 19 19.5261 19.0661 19.2237 19.1377C19.1982 19.1437 19.1753 19.1496 19.1551 19.1551C19.1496 19.1753 19.1437 19.1982 19.1377 19.2237C19.0661 19.5261 19 20.0664 19 21C19 21.9336 19.0661 22.4739 19.1377 22.7763C19.1437 22.8018 19.1496 22.8247 19.1551 22.8449C19.1753 22.8504 19.1982 22.8563 19.2237 22.8623C19.5261 22.9339 20.0664 23 21 23C21.9336 23 22.4739 22.9339 22.7763 22.8623C22.8018 22.8563 22.8247 22.8504 22.8449 22.8449C22.8504 22.8247 22.8563 22.8018 22.8623 22.7763ZM25 21C25 23.007 24.725 23.861 24.293 24.293C23.861 24.725 23.007 25 21 25C18.993 25 18.139 24.725 17.707 24.293C17.275 23.861 17 23.007 17 21C17 18.993 17.275 18.139 17.707 17.707C18.139 17.275 18.993 17 21 17C23.007 17 23.861 17.275 24.293 17.707C24.725 18.139 25 18.993 25 21Z"/>
<path fill-rule="evenodd" clip-rule="evenodd" d="M19.9995 7.99985C20.0003 7.4476 20.4479 7 20.9994 7C21.5524 7 22 7.4476 21.9992 7.99985V9.99955L23.9989 9.99955C24.5512 10.0003 24.9995 10.4471 24.9995 11.0001C24.9995 11.5516 24.5512 12 23.9989 11.9992L22 12V13.9996C21.9992 14.5519 21.5516 14.9995 21.0001 14.9995C20.4471 14.9995 19.9995 14.5519 20.0003 13.9996L19.9995 11.9992L18.0006 12C17.4483 11.9992 17 11.5524 17 10.9994C17 10.4479 17.4483 9.99955 18.0006 10.0003L19.9995 9.99955V7.99985Z"/>
</svg>
