<svg width="32" height="32" viewBox="0 0 32 32" fill="currentColor" xmlns="http://www.w3.org/2000/svg">
<path fill-rule="evenodd" clip-rule="evenodd" d="M9.1758 11.8195C8.09068 11.7053 7.60832 11.5566 7.40303 11.4654C7.2561 11.4001 7.22963 11.3599 7.19598 11.2967C7.13108 11.1749 7 10.8233 7 10C7 9.17675 7.13108 8.8251 7.19598 8.70331C7.22963 8.64014 7.2561 8.59992 7.40303 8.53462C7.60832 8.44338 8.09068 8.29472 9.1758 8.18051C10.2418 8.06832 11.7721 8 14 8H18C20.2279 8 21.7582 8.06832 22.8242 8.18051C23.9093 8.29472 24.3917 8.44338 24.597 8.53462C24.7439 8.59992 24.7704 8.64014 24.804 8.70331C24.8689 8.8251 25 9.17675 25 10C25 10.8233 24.8689 11.1749 24.804 11.2967C24.7704 11.3599 24.7439 11.4001 24.597 11.4654C24.3917 11.5566 23.9093 11.7053 22.8242 11.8195C21.7582 11.9317 20.2279 12 18 12H14C11.7721 12 10.2418 11.9317 9.1758 11.8195ZM7 13.4465C6.84684 13.3979 6.71147 13.3467 6.59075 13.293C5.61875 12.861 5 12.007 5 10C5 7.993 5.61875 7.139 6.59075 6.707C7.56275 6.275 9.48425 6 14 6H18C22.5158 6 24.4373 6.275 25.4093 6.707C26.3813 7.139 27 7.993 27 10C27 12.007 26.3813 12.861 25.4093 13.293C25.2885 13.3467 25.1532 13.3979 25 13.4465V15H24.998C24.946 25.061 23.993 26 16 26C8.007 26 7.054 25.061 7.002 15H7V13.4465ZM18 14C20.2363 14 21.8364 13.9326 23 13.812V15H22.998C22.987 17.226 22.934 18.926 22.769 20.273L22.768 20.276C22.583 21.802 22.286 22.535 21.994 22.925C21.763 23.233 21.395 23.515 20.472 23.715L20.458 23.718C20.292 23.755 20.118 23.788 19.934 23.816C19.75 23.844 18.488 23.958 17.919 23.976C17.35 23.994 16.715 24 16 24C15.284 24 14.649 23.994 14.08 23.976C13.511 23.958 12.25 23.844 12.066 23.816C11.882 23.788 11.708 23.755 11.542 23.718L11.529 23.715C10.605 23.515 10.237 23.233 10.006 22.925C9.714 22.535 9.417 21.802 9.232 20.276L9.231 20.273C9.066 18.926 9.013 17.226 9.002 15H9V13.812C10.1636 13.9326 11.7637 14 14 14H18ZM14 16C13.448 16 13 16.448 13 17C13 17.552 13.448 18 14 18H18C18.552 18 19 17.552 19 17C19 16.448 18.552 16 18 16H14Z"/>
</svg>
