<svg width="32" height="32" viewBox="0 0 32 32" fill="currentColor" xmlns="http://www.w3.org/2000/svg">
<path d="M16 7.998C16.551 7.998 16.9976 7.55133 16.9976 7.00034C16.9976 6.44935 16.551 6.00269 16 6.00269C15.449 6.00269 15.0023 6.44935 15.0023 7.00034C15.0023 7.55133 15.449 7.998 16 7.998Z"/>
<path d="M10.8234 9.83854C10.8234 10.3895 10.3768 10.8362 9.82578 10.8362C9.27479 10.8362 8.82812 10.3895 8.82812 9.83854C8.82812 9.28755 9.27479 8.84088 9.82578 8.84088C10.3768 8.84088 10.8234 9.28755 10.8234 9.83854Z"/>
<path d="M21.4092 9.83854C21.4092 10.3895 21.8559 10.8362 22.4069 10.8362C22.9579 10.8362 23.4045 10.3895 23.4045 9.83854C23.4045 9.28755 22.9579 8.84088 22.4069 8.84088C21.8559 8.84088 21.4092 9.28755 21.4092 9.83854Z"/>
<path d="M7.99532 16.167C7.99532 15.616 7.54865 15.1693 6.99766 15.1693C6.44667 15.1693 6 15.616 6 16.167C6 16.718 6.44667 17.1646 6.99766 17.1646C7.54865 17.1646 7.99532 16.718 7.99532 16.167Z"/>
<path d="M25.0023 15.1693C24.4514 15.1693 24.0047 15.616 24.0047 16.167C24.0047 16.718 24.4514 17.1646 25.0023 17.1646C25.5533 17.1646 26 16.718 26 16.167C26 15.616 25.5533 15.1693 25.0023 15.1693Z"/>
<path d="M10.8234 22.354C10.8234 21.803 10.3768 21.3563 9.82578 21.3563C9.27479 21.3563 8.82812 21.803 8.82812 22.354C8.82812 22.905 9.27479 23.3516 9.82578 23.3516C10.3768 23.3516 10.8234 22.905 10.8234 22.354Z"/>
<path d="M22.4069 21.3563C21.8559 21.3563 21.4092 21.803 21.4092 22.354C21.4092 22.905 21.8559 23.3516 22.4069 23.3516C22.9579 23.3516 23.4045 22.905 23.4045 22.354C23.4045 21.803 22.9579 21.3563 22.4069 21.3563Z"/>
<path d="M16.9976 25.1922C16.9976 24.6412 16.551 24.1945 16 24.1945C15.449 24.1945 15.0023 24.6412 15.0023 25.1922C15.0023 25.7432 15.449 26.1898 16 26.1898C16.551 26.1898 16.9976 25.7432 16.9976 25.1922Z"/>
<path d="M16 22C19.3137 22 22 19.3137 22 16C22 12.6863 19.3137 10 16 10C12.6863 10 10 12.6863 10 16C10 19.3137 12.6863 22 16 22Z"/>
</svg>
