<svg width="32" height="33" viewBox="0 0 32 33" fill="currentColor" xmlns="http://www.w3.org/2000/svg">
<path d="M16 8.24092C16.551 8.24092 16.9976 7.79425 16.9976 7.24326C16.9976 6.69227 16.551 6.24561 16 6.24561C15.449 6.24561 15.0023 6.69227 15.0023 7.24326C15.0023 7.79425 15.449 8.24092 16 8.24092Z"/>
<path d="M10.8234 10.0815C10.8234 10.6325 10.3768 11.0791 9.82578 11.0791C9.27479 11.0791 8.82812 10.6325 8.82812 10.0815C8.82812 9.53047 9.27479 9.0838 9.82578 9.0838C10.3768 9.0838 10.8234 9.53047 10.8234 10.0815Z"/>
<path d="M21.4092 10.0815C21.4092 10.6325 21.8559 11.0791 22.4069 11.0791C22.9579 11.0791 23.4045 10.6325 23.4045 10.0815C23.4045 9.53047 22.9579 9.0838 22.4069 9.0838C21.8559 9.0838 21.4092 9.53047 21.4092 10.0815Z"/>
<path d="M7.99532 16.4099C7.99532 15.8589 7.54865 15.4122 6.99766 15.4122C6.44667 15.4122 6 15.8589 6 16.4099C6 16.9609 6.44667 17.4076 6.99766 17.4076C7.54865 17.4076 7.99532 16.9609 7.99532 16.4099Z"/>
<path d="M25.0023 15.4122C24.4514 15.4122 24.0047 15.8589 24.0047 16.4099C24.0047 16.9609 24.4514 17.4076 25.0023 17.4076C25.5533 17.4076 26 16.9609 26 16.4099C26 15.8589 25.5533 15.4122 25.0023 15.4122Z"/>
<path d="M10.8234 22.5969C10.8234 22.0459 10.3768 21.5992 9.82578 21.5992C9.27479 21.5992 8.82812 22.0459 8.82812 22.5969C8.82812 23.1479 9.27479 23.5945 9.82578 23.5945C10.3768 23.5945 10.8234 23.1479 10.8234 22.5969Z"/>
<path d="M22.4069 21.5992C21.8559 21.5992 21.4092 22.0459 21.4092 22.5969C21.4092 23.1479 21.8559 23.5945 22.4069 23.5945C22.9579 23.5945 23.4045 23.1479 23.4045 22.5969C23.4045 22.0459 22.9579 21.5992 22.4069 21.5992Z"/>
<path d="M16.9976 25.4351C16.9976 24.8841 16.551 24.4374 16 24.4374C15.449 24.4374 15.0023 24.8841 15.0023 25.4351C15.0023 25.9861 15.449 26.4327 16 26.4327C16.551 26.4327 16.9976 25.9861 16.9976 25.4351Z"/>
<path fill-rule="evenodd" clip-rule="evenodd" d="M22 16.2429C22 19.5566 19.3137 22.2429 16 22.2429C12.6863 22.2429 10 19.5566 10 16.2429C10 12.9292 12.6863 10.2429 16 10.2429C19.3137 10.2429 22 12.9292 22 16.2429ZM20 16.2429C20 18.4521 18.2092 20.2429 16 20.2429C13.7909 20.2429 12 18.4521 12 16.2429C12 14.0338 13.7909 12.2429 16 12.2429C18.2092 12.2429 20 14.0338 20 16.2429Z"/>
</svg>
