<svg width="32" height="33" viewBox="0 0 32 33" fill="currentColor" xmlns="http://www.w3.org/2000/svg">
<path fill-rule="evenodd" clip-rule="evenodd" d="M15.001 5.24292C15.001 4.69092 15.449 4.24292 16.001 4.24292C16.553 4.24292 17.001 4.69092 17.001 5.24292V7.24292C17.001 7.79492 16.553 8.24292 16.001 8.24292C15.449 8.24292 15.001 7.79492 15.001 7.24292V5.24292ZM9.122 7.94992C8.732 7.55992 8.099 7.55992 7.708 7.94992C7.318 8.34092 7.318 8.97392 7.708 9.36392L9.122 10.7789C9.513 11.1689 10.146 11.1689 10.537 10.7789C10.927 10.3879 10.927 9.75492 10.537 9.36392L9.122 7.94992ZM24.536 7.94992C24.146 7.55992 23.513 7.55992 23.122 7.94992L21.708 9.36392C21.318 9.75492 21.318 10.3879 21.708 10.7789C22.099 11.1689 22.732 11.1689 23.122 10.7789L24.537 9.36392C24.927 8.97392 24.926 8.34092 24.536 7.94992Z"/>
<path d="M20.001 16.4189C20.001 14.0579 18.156 12.2429 16.001 12.2429C13.846 12.2429 12.001 14.0579 12.001 16.4189H10.001C10.001 13.0079 12.687 10.2429 16.001 10.2429C19.315 10.2429 22.001 13.0079 22.001 16.4189H20.001Z"/>
<path fill-rule="evenodd" clip-rule="evenodd" d="M15.001 27.4123C15.001 27.9643 15.449 28.4123 16.001 28.4123C16.553 28.4123 17.001 27.9643 17.001 27.4123V25.4123C17.001 24.8603 16.553 24.4123 16.001 24.4123C15.449 24.4123 15.001 24.8603 15.001 25.4123V27.4123ZM9.122 24.7053C8.732 25.0953 8.099 25.0953 7.708 24.7053C7.318 24.3143 7.318 23.6813 7.708 23.2913L9.122 21.8763C9.513 21.4863 10.146 21.4863 10.537 21.8763C10.927 22.2673 10.927 22.9003 10.537 23.2913L9.122 24.7053ZM24.536 24.7053C24.146 25.0953 23.513 25.0953 23.122 24.7053L21.708 23.2913C21.318 22.9003 21.318 22.2673 21.708 21.8763C22.099 21.4863 22.732 21.4863 23.122 21.8763L24.537 23.2913C24.927 23.6813 24.926 24.3143 24.536 24.7053ZM27 17.4123C27.552 17.4123 28 16.9643 28 16.4123C28 15.8603 27.552 15.4123 27 15.4123H25C24.448 15.4123 24 15.8603 24 16.4123C24 16.9643 24.448 17.4123 25 17.4123H27ZM8 16.4123C8 16.9643 7.552 17.4123 7 17.4123H5C4.448 17.4123 4 16.9643 4 16.4123C4 15.8603 4.448 15.4123 5 15.4123H7C7.552 15.4123 8 15.8603 8 16.4123Z"/>
<path d="M20.001 16.417C20.001 18.778 18.156 20.593 16.001 20.593C13.846 20.593 12.001 18.778 12.001 16.417H10.001C10.001 19.828 12.687 22.593 16.001 22.593C19.315 22.593 22.001 19.828 22.001 16.417H20.001Z"/>
</svg>
