<svg width="32" height="32" viewBox="0 0 32 32" fill="currentColor" xmlns="http://www.w3.org/2000/svg">
<path fill-rule="evenodd" clip-rule="evenodd" d="M15.001 5C15.001 4.448 15.449 4 16.001 4C16.553 4 17.001 4.448 17.001 5V7C17.001 7.552 16.553 8 16.001 8C15.449 8 15.001 7.552 15.001 7V5ZM9.122 7.707C8.732 7.317 8.099 7.317 7.708 7.707C7.318 8.098 7.318 8.731 7.708 9.121L9.122 10.536C9.513 10.926 10.146 10.926 10.537 10.536C10.927 10.145 10.927 9.512 10.537 9.121L9.122 7.707ZM24.536 7.707C24.146 7.317 23.513 7.317 23.122 7.707L21.708 9.121C21.318 9.512 21.318 10.145 21.708 10.536C22.099 10.926 22.732 10.926 23.122 10.536L24.537 9.121C24.927 8.731 24.926 8.098 24.536 7.707Z"/>
<path fill-rule="evenodd" clip-rule="evenodd" d="M15.001 27.1693C15.001 27.7213 15.449 28.1693 16.001 28.1693C16.553 28.1693 17.001 27.7213 17.001 27.1693V25.1693C17.001 24.6173 16.553 24.1693 16.001 24.1693C15.449 24.1693 15.001 24.6173 15.001 25.1693V27.1693ZM9.122 24.4623C8.732 24.8523 8.099 24.8523 7.708 24.4623C7.318 24.0713 7.318 23.4383 7.708 23.0483L9.122 21.6333C9.513 21.2433 10.146 21.2433 10.537 21.6333C10.927 22.0243 10.927 22.6573 10.537 23.0483L9.122 24.4623ZM24.536 24.4623C24.146 24.8523 23.513 24.8523 23.122 24.4623L21.708 23.0483C21.318 22.6573 21.318 22.0243 21.708 21.6333C22.099 21.2433 22.732 21.2433 23.122 21.6333L24.537 23.0483C24.927 23.4383 24.926 24.0713 24.536 24.4623ZM27 17.1693C27.552 17.1693 28 16.7213 28 16.1693C28 15.6173 27.552 15.1693 27 15.1693H25C24.448 15.1693 24 15.6173 24 16.1693C24 16.7213 24.448 17.1693 25 17.1693H27ZM8 16.1693C8 16.7213 7.552 17.1693 7 17.1693H5C4.448 17.1693 4 16.7213 4 16.1693C4 15.6173 4.448 15.1693 5 15.1693H7C7.552 15.1693 8 15.6173 8 16.1693Z"/>
<circle cx="16" cy="16" r="6"/>
</svg>
