<svg width="32" height="32" viewBox="0 0 32 32" fill="currentColor" xmlns="http://www.w3.org/2000/svg">
<path fill-rule="evenodd" clip-rule="evenodd" d="M26 16C26 5 25.167 4 16 4C6.833 4 6 5 6 16C6 27 6.833 28 16 28C25.167 28 26 27 26 16ZM11.5 15.5C12.329 15.5 13 14.828 13 14C13 13.172 12.329 12.5 11.5 12.5C10.671 12.5 10 13.172 10 14C10 14.828 10.671 15.5 11.5 15.5ZM17.5 14C17.5 14.828 16.829 15.5 16 15.5C15.171 15.5 14.5 14.828 14.5 14C14.5 13.172 15.171 12.5 16 12.5C16.829 12.5 17.5 13.172 17.5 14ZM20.5 15.5C21.329 15.5 22 14.828 22 14C22 13.172 21.329 12.5 20.5 12.5C19.671 12.5 19 13.172 19 14C19 14.828 19.671 15.5 20.5 15.5ZM13 18C13 18.828 12.329 19.5 11.5 19.5C10.671 19.5 10 18.828 10 18C10 17.172 10.671 16.5 11.5 16.5C12.329 16.5 13 17.172 13 18ZM16 19.5C16.829 19.5 17.5 18.828 17.5 18C17.5 17.172 16.829 16.5 16 16.5C15.171 16.5 14.5 17.172 14.5 18C14.5 18.828 15.171 19.5 16 19.5ZM22 18C22 18.828 21.329 19.5 20.5 19.5C19.671 19.5 19 18.828 19 18C19 17.172 19.671 16.5 20.5 16.5C21.329 16.5 22 17.172 22 18ZM11.5 23.5C12.329 23.5 13 22.828 13 22C13 21.172 12.329 20.5 11.5 20.5C10.671 20.5 10 21.172 10 22C10 22.828 10.671 23.5 11.5 23.5ZM17.5 22C17.5 22.828 16.829 23.5 16 23.5C15.171 23.5 14.5 22.828 14.5 22C14.5 21.172 15.171 20.5 16 20.5C16.829 20.5 17.5 21.172 17.5 22ZM20.5 23.5C21.329 23.5 22 22.828 22 22C22 21.172 21.329 20.5 20.5 20.5C19.671 20.5 19 21.172 19 22C19 22.828 19.671 23.5 20.5 23.5ZM11 8.5C10.448 8.5 10 8.948 10 9.5C10 10.052 10.448 10.5 11 10.5H21C21.552 10.5 22 10.052 22 9.5C22 8.948 21.552 8.5 21 8.5H11Z"/>
</svg>
