<svg width="32" height="32" viewBox="0 0 32 32" fill="currentColor" xmlns="http://www.w3.org/2000/svg">
<path fill-rule="evenodd" clip-rule="evenodd" d="M21.048 6.291C19.836 6.05 18.256 6 16 6C13.744 6 12.164 6.05 10.952 6.291C9.842 6.507 9.375 6.824 9.099 7.155C8.779 7.539 8.458 8.249 8.255 9.752C8.046 11.283 8 13.274 8 16C8 18.725 8.046 20.717 8.255 22.248C8.458 23.751 8.779 24.461 9.099 24.845C9.375 25.176 9.842 25.493 10.952 25.709C12.164 25.95 13.744 26 16 26C18.256 26 19.836 25.95 21.048 25.709C22.158 25.493 22.625 25.176 22.901 24.845C23.221 24.461 23.542 23.751 23.744 22.248C23.954 20.717 24 18.725 24 16C24 13.274 23.954 11.283 23.744 9.752C23.542 8.249 23.221 7.539 22.901 7.155C22.625 6.824 22.158 6.507 21.048 6.291ZM26 16C26 5 25.167 4 16 4C6.833 4 6 5 6 16C6 27 6.833 28 16 28C25.167 28 26 27 26 16Z"/>
<path d="M11.5 15.5C12.329 15.5 13 14.828 13 14C13 13.172 12.329 12.5 11.5 12.5C10.671 12.5 10 13.172 10 14C10 14.828 10.671 15.5 11.5 15.5Z"/>
<path d="M16 15.5C16.829 15.5 17.5 14.828 17.5 14C17.5 13.172 16.829 12.5 16 12.5C15.171 12.5 14.5 13.172 14.5 14C14.5 14.828 15.171 15.5 16 15.5Z"/>
<path d="M20.5 15.5C21.329 15.5 22 14.828 22 14C22 13.172 21.329 12.5 20.5 12.5C19.671 12.5 19 13.172 19 14C19 14.828 19.671 15.5 20.5 15.5Z"/>
<path d="M11.5 19.5C12.329 19.5 13 18.828 13 18C13 17.172 12.329 16.5 11.5 16.5C10.671 16.5 10 17.172 10 18C10 18.828 10.671 19.5 11.5 19.5Z"/>
<path d="M16 19.5C16.829 19.5 17.5 18.828 17.5 18C17.5 17.172 16.829 16.5 16 16.5C15.171 16.5 14.5 17.172 14.5 18C14.5 18.828 15.171 19.5 16 19.5Z"/>
<path d="M20.5 19.5C21.329 19.5 22 18.828 22 18C22 17.172 21.329 16.5 20.5 16.5C19.671 16.5 19 17.172 19 18C19 18.828 19.671 19.5 20.5 19.5Z"/>
<path d="M11.5 23.5C12.329 23.5 13 22.828 13 22C13 21.172 12.329 20.5 11.5 20.5C10.671 20.5 10 21.172 10 22C10 22.828 10.671 23.5 11.5 23.5Z"/>
<path d="M16 23.5C16.829 23.5 17.5 22.828 17.5 22C17.5 21.172 16.829 20.5 16 20.5C15.171 20.5 14.5 21.172 14.5 22C14.5 22.828 15.171 23.5 16 23.5Z"/>
<path d="M20.5 23.5C21.329 23.5 22 22.828 22 22C22 21.172 21.329 20.5 20.5 20.5C19.671 20.5 19 21.172 19 22C19 22.828 19.671 23.5 20.5 23.5Z"/>
<path fill-rule="evenodd" clip-rule="evenodd" d="M10 9.5C10 8.948 10.448 8.5 11 8.5H21C21.552 8.5 22 8.948 22 9.5C22 10.052 21.552 10.5 21 10.5H11C10.448 10.5 10 10.052 10 9.5Z"/>
</svg>
