<svg fill-rule="evenodd" clip-rule="evenodd" stroke-linejoin="round" stroke-miterlimit="1.414" xmlns="http://www.w3.org/2000/svg" aria-label="card-list" viewBox="0 0 32 32" preserveAspectRatio="xMidYMid meet" fill="currentColor" width="32" height="32" title="card-list"><path d="M6.291 21.048C6.05 19.836 6 18.256 6 16C6 13.744 6.05 12.164 6.291 10.952C6.507 9.842 6.824 9.375 7.155 9.099C7.539 8.779 8.249 8.458 9.752 8.255C11.283 8.046 13.274 8 16 8C18.725 8 20.717 8.046 22.248 8.255C23.751 8.458 24.461 8.779 24.845 9.099C25.176 9.375 25.493 9.842 25.709 10.952C25.95 12.164 26 13.744 26 16C26 18.256 25.95 19.836 25.709 21.048C25.493 22.158 25.176 22.625 24.845 22.901C24.461 23.221 23.751 23.542 22.248 23.744C20.717 23.954 18.725 24 16 24C13.274 24 11.283 23.954 9.752 23.744C8.249 23.542 7.539 23.221 7.155 22.901C6.824 22.625 6.507 22.158 6.291 21.048ZM16 26C5 26 4 25.167 4 16C4 6.833 5 6 16 6C27 6 28 6.833 28 16C28 25.167 27 26 16 26Z"></path><path d="M13 12C13 11.448 13.448 11 14 11H22C22.552 11 23 11.448 23 12C23 12.552 22.552 13 22 13H14C13.448 13 13 12.552 13 12Z"></path><path d="M13 16C13 15.448 13.448 15 14 15H22C22.552 15 23 15.448 23 16C23 16.552 22.552 17 22 17H14C13.448 17 13 16.552 13 16Z"></path><path d="M13 20C13 19.448 13.4135 19 13.9231 19H18.0769C18.5865 19 19 19.448 19 20C19 20.552 18.5865 21 18.0769 21H13.9231C13.4135 21 13 20.552 13 20Z"></path><path d="M10.5 13.5C11.329 13.5 12 12.828 12 12C12 11.172 11.329 10.5 10.5 10.5C9.671 10.5 9 11.172 9 12C9 12.828 9.671 13.5 10.5 13.5Z"></path><path d="M10.5 17.5C11.329 17.5 12 16.828 12 16C12 15.172 11.329 14.5 10.5 14.5C9.671 14.5 9 15.172 9 16C9 16.828 9.671 17.5 10.5 17.5Z"></path><path d="M10.5 21.5C11.329 21.5 12 20.828 12 20C12 19.172 11.329 18.5 10.5 18.5C9.671 18.5 9 19.172 9 20C9 20.828 9.671 21.5 10.5 21.5Z"></path></svg>
