<svg width="32" height="32" viewBox="0 0 32 32" fill="currentColor" xmlns="http://www.w3.org/2000/svg">
<path fill-rule="evenodd" clip-rule="evenodd" d="M26 16C26 21.523 21.523 26 16 26C10.477 26 6 21.523 6 16C6 10.477 10.477 6 16 6C21.523 6 26 10.477 26 16ZM28 16C28 22.627 22.627 28 16 28C9.373 28 4 22.627 4 16C4 9.373 9.373 4 16 4C22.627 4 28 9.373 28 16Z"/>
<path fill-rule="evenodd" clip-rule="evenodd" d="M10.2925 16.6285C9.9025 17.0185 9.9025 17.6525 10.2925 18.0425L13.8785 21.6285C14.2685 22.0185 14.9025 22.0185 15.2925 21.6285L22.8785 14.0425C23.2685 13.6525 23.2685 13.0185 22.8785 12.6285L22.5425 12.2925C22.1525 11.9025 21.5185 11.9025 21.1285 12.2925L14.5855 18.8355L12.0425 16.2925C11.6525 15.9025 11.0185 15.9025 10.6285 16.2925L10.2925 16.6285Z"/>
</svg>
