<svg width="32" height="32" viewBox="0 0 32 32" fill="currentColor" xmlns="http://www.w3.org/2000/svg">
<path d="M13.625 13.625V18.375H16C17.2598 18.375 18.4679 18.8754 19.3587 19.7663C20.2496 20.6571 20.75 21.8652 20.75 23.125V25.5H11.25C9.99022 25.5 8.78204 24.9996 7.89124 24.1087C7.00044 23.2179 6.5 22.0098 6.5 20.75V11.25C6.5 9.99022 7.00044 8.78204 7.89124 7.89124C8.78204 7.00044 9.99022 6.5 11.25 6.5H20.75C22.0098 6.5 23.2179 7.00044 24.1087 7.89124C24.9996 8.78204 25.5 9.99022 25.5 11.25V13.625H13.625Z"/>
</svg>
