<svg width="32" height="32" viewBox="0 0 32 32" fill="currentColor" xmlns="http://www.w3.org/2000/svg">
<path fill-rule="evenodd" clip-rule="evenodd" d="M13.1707 15C13.5825 13.8348 14.6937 13 16 13C17.3062 13 18.4175 13.8348 18.8293 15C18.8337 15.0126 18.8381 15.0252 18.8423 15.0378C18.9446 15.3398 19 15.6634 19 16C19 16.3506 18.9398 16.6872 18.8293 17C18.4175 18.1652 17.3062 19 16 19C14.6937 19 13.5825 18.1652 13.1707 17C13.1662 16.9874 13.1619 16.9748 13.1576 16.9622C13.0554 16.6602 13 16.3366 13 16C13 15.6494 13.0601 15.3128 13.1707 15ZM17 16C17 16.5523 16.5523 17 16 17C15.4477 17 15 16.5523 15 16C15 15.4477 15.4477 15 16 15C16.5523 15 17 15.4477 17 16Z"/>
<path d="M20 16C20 16.3453 19.9562 16.6804 19.874 17H27C27.552 17 28 16.552 28 16C28 15.448 27.552 15 27 15H19.874C19.9562 15.3196 20 15.6547 20 16Z"/>
<path d="M5 17H12.126C12.0437 16.6804 12 16.3453 12 16C12 15.6547 12.0437 15.3196 12.126 15H5C4.448 15 4 15.448 4 16C4 16.552 4.448 17 5 17Z"/>
</svg>
