<svg width="32" height="32" viewBox="0 0 32 32" fill="currentColor" xmlns="http://www.w3.org/2000/svg">
<path d="M19 16C19 18.0166 18.6991 18.4727 18.5859 18.5859C18.4727 18.6991 18.0166 19 16 19C13.9834 19 13.5273 18.6991 13.4141 18.5859C13.3009 18.4727 13 18.0166 13 16C13 13.9834 13.3009 13.5273 13.4141 13.4141C13.5273 13.3009 13.9834 13 16 13C18.0166 13 18.4727 13.3009 18.5859 13.4141C18.6991 13.5273 19 13.9834 19 16Z" stroke="black" style="stroke:black;stroke-opacity:1;" stroke-width="2"/>
<path fill-rule="evenodd" clip-rule="evenodd" d="M21.5 30C22.325 30 23 29.8333 23 28C23 26.1667 22.325 26 21.5 26C20.675 26 20 26.1667 20 28C20 29.8333 20.675 30 21.5 30Z"/>
<path fill-rule="evenodd" clip-rule="evenodd" d="M10.5 30C11.325 30 12 29.8333 12 28C12 26.1667 11.325 26 10.5 26C9.675 26 9 26.1667 9 28C9 29.8333 9.675 30 10.5 30Z"/>
<path fill-rule="evenodd" clip-rule="evenodd" d="M30 10.5C30 9.675 29.8333 9 28 9C26.1667 9 26 9.675 26 10.5C26 11.325 26.1667 12 28 12C29.8333 12 30 11.325 30 10.5Z"/>
<path fill-rule="evenodd" clip-rule="evenodd" d="M30 21.5C30 20.675 29.8333 20 28 20C26.1667 20 26 20.675 26 21.5C26 22.325 26.1667 23 28 23C29.8333 23 30 22.325 30 21.5Z"/>
<path fill-rule="evenodd" clip-rule="evenodd" d="M6 10.5C6 9.675 5.83332 9 4 9C2.16666 9 2 9.675 2 10.5C2 11.325 2.16666 12 4 12C5.83332 12 6 11.325 6 10.5Z"/>
<path fill-rule="evenodd" clip-rule="evenodd" d="M6 21.5C6 20.675 5.83332 20 4 20C2.16666 20 2 20.675 2 21.5C2 22.325 2.16666 23 4 23C5.83332 23 6 22.325 6 21.5Z"/>
<path fill-rule="evenodd" clip-rule="evenodd" d="M21.5 6C22.325 6 23 5.83332 23 4C23 2.16666 22.325 2 21.5 2C20.675 2 20 2.16666 20 4C20 5.83332 20.675 6 21.5 6Z"/>
<path fill-rule="evenodd" clip-rule="evenodd" d="M10.5 6C11.325 6 12 5.83332 12 4C12 2.16666 11.325 2 10.5 2C9.675 2 9 2.16666 9 4C9 5.83332 9.675 6 10.5 6Z"/>
<path fill-rule="evenodd" clip-rule="evenodd" d="M16 6C21.1 6 23.247 6.576 24.336 7.665C25.425 8.754 26 10.9 26 16C26 21.1 25.425 23.247 24.336 24.336C23.247 25.425 21.1 26 16 26C10.9 26 8.753 25.425 7.664 24.336C6.575 23.247 6 21.1 6 16C6 10.9 6.575 8.753 7.664 7.665C8.753 6.576 10.9 6 16 6ZM28 16C28 6 26 4 16 4C6 4 4 6 4 16C4 26 6 28 16 28C26 28 28 26 28 16Z"/>
</svg>
