<svg width="32" height="32" viewBox="0 0 32 32" fill="currentColor" xmlns="http://www.w3.org/2000/svg">
<path fill-rule="evenodd" clip-rule="evenodd" d="M25.9099 19.4745C25.981 18.5252 26 17.3911 26 16C26 13.744 25.95 12.164 25.709 10.952C25.493 9.842 25.176 9.375 24.845 9.099C24.461 8.779 23.751 8.458 22.248 8.255C20.717 8.046 18.726 8 16 8C13.275 8 11.283 8.046 9.752 8.255C8.249 8.458 7.539 8.779 7.155 9.099C6.824 9.375 6.507 9.842 6.291 10.952C6.05 12.164 6 13.744 6 16C6 18.256 6.05 19.836 6.291 21.048C6.507 22.158 6.824 22.625 7.155 22.901C7.539 23.221 8.249 23.542 9.752 23.744C11.283 23.954 13.275 24 16 24C17.2416 24 18.3308 23.9905 19.2934 23.9602C19.1623 24.281 19.09 24.6321 19.09 25C19.09 25.3378 19.1509 25.6613 19.2623 25.9603C18.2867 25.99 17.2032 26 16 26C5 26 4 25.167 4 16C4 6.833 5 6 16 6C27 6 28 6.833 28 16C28 17.2945 27.9801 18.4227 27.9148 19.4059C27.2649 19.1772 26.5461 19.2001 25.9099 19.4745Z"/>
<path fill-rule="evenodd" clip-rule="evenodd" d="M7.34901 11.226C7.76001 10.882 8.37201 10.937 8.71501 11.35C10.05 12.951 14.332 16.668 16 17.942C17.696 16.646 21.931 12.979 23.285 11.35C23.628 10.937 24.24 10.882 24.651 11.226C25.063 11.57 25.118 12.183 24.775 12.596C24.08 13.434 22.755 14.725 21.346 16L21.346 16C22.755 17.275 24.08 18.566 24.775 19.404C25.118 19.816 25.063 20.43 24.651 20.774C24.24 21.118 23.628 21.063 23.285 20.65C22.623 19.852 21.27 18.567 19.863 17.311L19.863 17.311C18.761 18.261 17.726 19.1 17.022 19.602C16.72 19.815 16.378 20 16 20C15.622 20 15.28 19.815 14.979 19.602C14.288 19.11 13.251 18.267 12.144 17.31L10.662 16C9.24401 14.716 7.90901 13.418 7.22601 12.597L7.22501 12.596C6.88201 12.183 6.93801 11.57 7.34901 11.226ZM8.71501 20.65C9.36901 19.866 10.73 18.574 12.144 17.31L10.662 16C9.24401 17.284 7.90901 18.581 7.22601 19.403L7.22501 19.404C6.88201 19.817 6.93801 20.43 7.34901 20.774C7.76001 21.118 8.37201 21.063 8.71501 20.65Z"/>
<path d="M30.5493 25.6199L27.5493 28.6199C27.1588 29.0104 26.5256 29.0104 26.1351 28.6199C25.7446 28.2294 25.7446 27.5962 26.1351 27.2057L27.428 25.9128H21.8422C21.2899 25.9128 20.8422 25.4651 20.8422 24.9128C20.8422 24.3605 21.2899 23.9128 21.8422 23.9128H27.428L26.1351 22.6199C25.7446 22.2294 25.7446 21.5962 26.1351 21.2057C26.5256 20.8152 27.1588 20.8152 27.5493 21.2057L30.5493 24.2057C30.9398 24.5962 30.9398 25.2294 30.5493 25.6199Z"/>
</svg>
