<svg fill-rule="evenodd" clip-rule="evenodd" stroke-linejoin="round" stroke-miterlimit="1.414" xmlns="http://www.w3.org/2000/svg" aria-label="email-exclamation" viewBox="0 0 32 32" preserveAspectRatio="xMidYMid meet" fill="currentColor" width="32" height="32" title="email-exclamation"><path d="M21.5408 23.8265C20.1147 23.9665 18.3246 24 16 24C13.275 24 11.283 23.954 9.752 23.744C8.249 23.542 7.539 23.221 7.155 22.901C6.824 22.625 6.507 22.158 6.291 21.048C6.05 19.836 6 18.256 6 16C6 13.744 6.05 12.164 6.291 10.952C6.507 9.842 6.824 9.375 7.155 9.099C7.539 8.779 8.249 8.458 9.752 8.255C11.283 8.046 13.275 8 16 8C18.726 8 20.717 8.046 22.248 8.255C23.751 8.458 24.461 8.779 24.845 9.099C25.176 9.375 25.493 9.842 25.709 10.952C25.95 12.164 26 13.744 26 16C26 17.2142 25.9855 18.2325 25.9346 19.1031C26.2793 19.0355 26.6355 19 27 19C27.3186 19 27.6308 19.0271 27.9346 19.0791C27.9842 18.1747 28 17.1533 28 16C28 6.833 27 6 16 6C5 6 4 6.833 4 16C4 25.167 5 26 16 26C18.2947 26 20.1542 25.9638 21.6602 25.8232C21.5555 25.3993 21.5 24.9562 21.5 24.5C21.5 24.272 21.5139 24.0472 21.5408 23.8265ZM23.188 20.5353C22.4968 19.7323 21.2044 18.5085 19.863 17.311C18.761 18.261 17.726 19.1 17.022 19.602C16.72 19.815 16.378 20 16 20C15.622 20 15.28 19.815 14.979 19.602C14.288 19.11 13.251 18.267 12.144 17.31C10.73 18.574 9.369 19.866 8.715 20.65C8.372 21.063 7.76 21.118 7.349 20.774C6.938 20.43 6.882 19.817 7.225 19.404L7.226 19.403C7.909 18.581 9.244 17.284 10.662 16C9.244 14.716 7.909 13.418 7.226 12.597L7.225 12.596C6.882 12.183 6.938 11.57 7.349 11.226C7.76 10.882 8.372 10.937 8.715 11.35C10.05 12.951 14.332 16.668 16 17.942C17.696 16.646 21.931 12.979 23.285 11.35C23.628 10.937 24.24 10.882 24.651 11.226C25.063 11.57 25.118 12.183 24.775 12.596C24.08 13.434 22.755 14.725 21.346 16C22.755 17.275 24.08 18.566 24.775 19.404C24.7881 19.4198 24.8007 19.4358 24.8126 19.4522C24.2067 19.7151 23.6574 20.0839 23.188 20.5353Z"></path><path d="M27 29C29.4853 29 31.5 26.9853 31.5 24.5C31.5 22.0147 29.4853 20 27 20C24.5147 20 22.5 22.0147 22.5 24.5C22.5 26.9853 24.5147 29 27 29ZM27 25.25C26.448 25.25 26 24.802 26 24.25V22.25C26 21.698 26.448 21.25 27 21.25C27.552 21.25 28 21.698 28 22.25V24.25C28 24.802 27.552 25.25 27 25.25ZM27 27.75C26.448 27.75 26 27.302 26 26.75C26 26.198 26.448 25.75 27 25.75C27.552 25.75 28 26.198 28 26.75C28 27.302 27.552 27.75 27 27.75Z"></path></svg>
