<svg fill-rule="evenodd" clip-rule="evenodd" stroke-linejoin="round" stroke-miterlimit="1.414" xmlns="http://www.w3.org/2000/svg" aria-label="event-star" viewBox="0 0 32 32" preserveAspectRatio="xMidYMid meet" fill="currentColor" width="32" height="32" title="event-star"><path d="M28 16C28 6 26 4 16 4C6 4 4 6 4 16C4 26 6 28 16 28C26 28 28 26 28 16ZM24.336 24.336C25.425 23.247 26 21.1 26 16C26 13.8599 25.8987 12.24 25.7008 11H16H6.2992C6.10123 12.24 6 13.8601 6 16C6 21.1 6.575 23.247 7.664 24.336C8.753 25.425 10.9 26 16 26C21.1 26 23.247 25.425 24.336 24.336ZM11 8.00001C11.0001 7.44769 11.4477 7.00002 12.0001 6.99995H20C20.5523 6.99995 21 7.44773 21 8.00001C21 8.5523 20.5523 9 20 9H12C11.4477 9 11 8.55226 11 8.00001Z"></path><path d="M16 16.4219C15.6277 16.9346 15.1018 17.3167 14.4991 17.5123C14.8717 18.0249 15.0725 18.6431 15.0724 19.2767C15.675 19.0808 16.325 19.0808 16.9276 19.2767C16.9275 18.6431 17.1283 18.0249 17.5009 17.5123C16.8982 17.3167 16.3723 16.9346 16 16.4219ZM16.8967 13.817C16.5299 13.0737 15.4701 13.0737 15.1033 13.817L14.4693 15.1015C14.3237 15.3967 14.0421 15.6012 13.7164 15.6485L12.2988 15.8545C11.4786 15.9737 11.1511 16.9817 11.7446 17.5602L12.7704 18.5601C13.006 18.7898 13.1136 19.1208 13.058 19.4452L12.8158 20.857C12.6757 21.6739 13.5331 22.2969 14.2668 21.9112L15.5347 21.2446C15.826 21.0915 16.174 21.0915 16.4653 21.2446L17.7332 21.9112C18.4669 22.2969 19.3243 21.6739 19.1842 20.857L18.942 19.4452C18.8864 19.1208 18.994 18.7898 19.2296 18.5601L20.2554 17.5602C20.8489 16.9817 20.5214 15.9737 19.7012 15.8545L18.2836 15.6485C17.9579 15.6012 17.6763 15.3967 17.5307 15.1015L16.8967 13.817Z"></path></svg>
