<svg width="32" height="32" viewBox="0 0 32 32" fill="currentColor" xmlns="http://www.w3.org/2000/svg">
<path d="M18.9095 18.2544C18.8595 18.8044 19.2649 19.2908 19.8149 19.3408C20.3649 19.3908 20.8513 18.9855 20.9013 18.4355L20.9014 18.4338C21.3196 16.5772 21.3196 15.163 21.0685 12.6612C21.0027 12.2869 20.8884 11.9033 20.6125 11.6274C20.3366 11.3515 19.953 11.2372 19.5786 11.1714C17.077 10.9203 15.6628 10.9203 13.805 11.3385C13.2662 11.4598 12.8491 11.875 12.8991 12.425C12.9491 12.975 13.4355 13.3804 13.9855 13.3304L14.1956 13.3114C15.6841 13.1765 16.5782 13.0955 17.7321 13.0936L17.7336 13.0951L12.2929 18.5358C11.9024 18.9264 11.9024 19.5595 12.2929 19.9501C12.6834 20.3406 13.3166 20.3406 13.7071 19.9501L19.1453 14.5119C19.142 15.6445 19.0628 16.5339 18.9378 17.9365L18.9095 18.2544Z"/>
</svg>
