<svg width="32" height="32" viewBox="0 0 32 32" fill="currentColor" xmlns="http://www.w3.org/2000/svg">
<path fill-rule="evenodd" clip-rule="evenodd" d="M8.1758 12.3195C7.09068 12.2053 6.60832 12.0566 6.40303 11.9654C6.2561 11.9001 6.22963 11.8599 6.19598 11.7967C6.13108 11.6749 6 11.3233 6 10.5C6 9.67675 6.13108 9.3251 6.19598 9.20331C6.22963 9.14014 6.2561 9.09992 6.40303 9.03462C6.60832 8.94338 7.09068 8.79472 8.1758 8.68051C9.24182 8.56832 10.7721 8.5 13 8.5H19C21.2279 8.5 22.7582 8.56832 23.8242 8.68051C24.9093 8.79472 25.3917 8.94338 25.597 9.03462C25.7439 9.09992 25.7704 9.14014 25.804 9.20331C25.8689 9.3251 26 9.67675 26 10.5C26 11.3233 25.8689 11.6749 25.804 11.7967C25.7704 11.8599 25.7439 11.9001 25.597 11.9654C25.3917 12.0566 24.9093 12.2053 23.8242 12.3195C22.7582 12.4317 21.2279 12.5 19 12.5H13C10.7721 12.5 9.24182 12.4317 8.1758 12.3195ZM13 14.5C8.48425 14.5 6.56275 14.225 5.59075 13.793C4.61875 13.361 4 12.507 4 10.5C4 8.493 4.61875 7.639 5.59075 7.207C6.56275 6.775 8.48425 6.5 13 6.5H19C23.5158 6.5 25.4373 6.775 26.4093 7.207C27.3813 7.639 28 8.493 28 10.5C28 12.507 27.3813 13.361 26.4093 13.793C25.4373 14.225 23.5158 14.5 19 14.5H13ZM22.0303 23.4443C21.6627 23.0519 21.67 22.4357 22.0525 22.0533C22.4435 21.6623 23.0765 21.6623 23.4665 22.0533L24.6265 23.2133L24.8805 23.4673L25.2709 23.0769L25.9238 22.4239L26.2945 22.0533C26.6855 21.6633 27.3185 21.6623 27.7095 22.0533C27.82 22.1637 27.8992 22.2938 27.947 22.4323C28.0681 22.7829 27.9888 23.1877 27.7085 23.4673L27.6848 23.491L26.364 24.8127L26.2955 24.8813L27.7095 26.2953C28.0995 26.6863 28.0995 27.3193 27.7095 27.7093C27.3185 28.1003 26.6855 28.1003 26.2955 27.7093L24.8805 26.2953L23.4675 27.7093C23.0765 28.0993 22.4435 28.1003 22.0525 27.7093C21.6625 27.3193 21.6625 26.6853 22.0535 26.2953L22.9499 25.3983L23.4665 24.8813L22.0525 23.4673C22.045 23.4597 22.0376 23.452 22.0303 23.4443ZM8.1758 23.3195C7.09068 23.2053 6.60832 23.0566 6.40303 22.9654C6.2561 22.9001 6.22963 22.8599 6.19598 22.7967C6.13108 22.6749 6 22.3233 6 21.5C6 20.6767 6.13108 20.3251 6.19598 20.2033C6.22963 20.1401 6.2561 20.0999 6.40303 20.0346C6.60832 19.9434 7.09068 19.7947 8.1758 19.6805C9.24182 19.5683 10.7721 19.5 13 19.5H19C21.2279 19.5 22.7582 19.5683 23.8242 19.6805C24.9093 19.7947 25.3917 19.9434 25.597 20.0346C25.7439 20.0999 25.7704 20.1401 25.804 20.2033C25.8552 20.2993 25.9475 20.5381 25.9842 21.0382C26.5986 20.6749 27.3663 20.6673 27.9871 21.0189C27.8937 19.3527 27.2997 18.6028 26.4093 18.207C25.4373 17.775 23.5158 17.5 19 17.5H13C8.48425 17.5 6.56275 17.775 5.59075 18.207C4.61875 18.639 4 19.493 4 21.5C4 23.507 4.61875 24.361 5.59075 24.793C6.56275 25.225 8.48425 25.5 13 25.5H19C19.9274 25.5 20.7454 25.4884 21.4682 25.4662L22.0525 24.8815L21.3445 24.1735C21.1413 23.9698 20.9911 23.7331 20.8938 23.4807C20.3261 23.4933 19.6972 23.5 19 23.5H13C10.7721 23.5 9.24182 23.4317 8.1758 23.3195Z"/>
</svg>
