<svg width="32" height="32" viewBox="0 0 32 32" fill="currentColor" xmlns="http://www.w3.org/2000/svg">
<path fill-rule="evenodd" clip-rule="evenodd" d="M8.1758 23.3195C7.09068 23.2053 6.60832 23.0566 6.40303 22.9654C6.2561 22.9001 6.22963 22.8599 6.19598 22.7967C6.13108 22.6749 6 22.3233 6 21.5C6 20.6767 6.13108 20.3251 6.19598 20.2033C6.22963 20.1401 6.2561 20.0999 6.40303 20.0346C6.60832 19.9434 7.09068 19.7947 8.1758 19.6805C9.24182 19.5683 10.7721 19.5 13 19.5H19C21.2279 19.5 22.7582 19.5683 23.8242 19.6805C24.9093 19.7947 25.3917 19.9434 25.597 20.0346C25.7439 20.0999 25.7704 20.1401 25.804 20.2033C25.8689 20.3251 26 20.6767 26 21.5C26 22.3233 25.8689 22.6749 25.804 22.7967C25.7704 22.8599 25.7439 22.9001 25.597 22.9654C25.3917 23.0566 24.9093 23.2053 23.8242 23.3195C22.7582 23.4317 21.2279 23.5 19 23.5H13C10.7721 23.5 9.24182 23.4317 8.1758 23.3195ZM13 25.5C8.48425 25.5 6.56275 25.225 5.59075 24.793C4.61875 24.361 4 23.507 4 21.5C4 19.493 4.61875 18.639 5.59075 18.207C6.56275 17.775 8.48425 17.5 13 17.5H19C23.5158 17.5 25.4373 17.775 26.4093 18.207C27.3813 18.639 28 19.493 28 21.5C28 23.507 27.3813 24.361 26.4093 24.793C25.4373 25.225 23.5158 25.5 19 25.5H13Z"/>
<path fill-rule="evenodd" clip-rule="evenodd" d="M8.1758 12.3195C7.09068 12.2053 6.60832 12.0566 6.40303 11.9654C6.2561 11.9001 6.22963 11.8599 6.19598 11.7967C6.13108 11.6749 6 11.3233 6 10.5C6 9.67675 6.13108 9.3251 6.19598 9.20331C6.22963 9.14014 6.2561 9.09992 6.40303 9.03462C6.60832 8.94338 7.09068 8.79472 8.1758 8.68051C9.24182 8.56832 10.7721 8.5 13 8.5H19C21.2279 8.5 22.7582 8.56832 23.8242 8.68051C24.9093 8.79472 25.3917 8.94338 25.597 9.03462C25.7439 9.09992 25.7704 9.14014 25.804 9.20331C25.8689 9.3251 26 9.67675 26 10.5C26 11.3233 25.8689 11.6749 25.804 11.7967C25.7704 11.8599 25.7439 11.9001 25.597 11.9654C25.3917 12.0566 24.9093 12.2053 23.8242 12.3195C22.7582 12.4317 21.2279 12.5 19 12.5H13C10.7721 12.5 9.24182 12.4317 8.1758 12.3195ZM13 14.5C8.48425 14.5 6.56275 14.225 5.59075 13.793C4.61875 13.361 4 12.507 4 10.5C4 8.493 4.61875 7.639 5.59075 7.207C6.56275 6.775 8.48425 6.5 13 6.5H19C23.5158 6.5 25.4373 6.775 26.4093 7.207C27.3813 7.639 28 8.493 28 10.5C28 12.507 27.3813 13.361 26.4093 13.793C25.4373 14.225 23.5158 14.5 19 14.5H13Z"/>
</svg>
