<svg width="32" height="32" viewBox="0 0 32 32" fill="currentColor" xmlns="http://www.w3.org/2000/svg">
<path d="M28.5504 0.858313C28.9404 0.467313 29.5744 0.467313 29.9644 0.858313L30.3174 1.21131C30.7084 1.60231 30.7084 2.23531 30.3174 2.62531L19.4314 13.5123C18.8324 14.1113 18.1254 14.5913 17.3484 14.9283C16.6474 15.2313 15.9374 14.5183 16.2444 13.8183L16.2474 13.8123C16.5844 13.0453 17.0614 12.3473 17.6544 11.7543L28.5504 0.858313Z"/>
<path fill-rule="evenodd" clip-rule="evenodd" d="M6.50315 25.4654C6.717 25.5566 7.21946 25.7053 8.34979 25.8195C9.46023 25.9317 11.0543 26 13.375 26H19.625C21.9457 26 23.5398 25.9317 24.6502 25.8195C25.7805 25.7053 26.283 25.5566 26.4968 25.4654C26.6499 25.4001 26.6775 25.3599 26.7125 25.2967C26.7801 25.1749 26.9167 24.8233 26.9167 24C26.9167 23.1767 26.7801 22.8251 26.7125 22.7033C26.6775 22.6401 26.6499 22.5999 26.4968 22.5346C26.283 22.4434 25.7805 22.2947 24.6502 22.1805C23.5398 22.0683 21.9457 22 19.625 22H13.375C11.0543 22 9.46023 22.0683 8.34979 22.1805C7.21946 22.2947 6.717 22.4434 6.50315 22.5346C6.35011 22.5999 6.32254 22.6401 6.28747 22.7033C6.21988 22.8251 6.08333 23.1767 6.08333 24C6.08333 24.8233 6.21988 25.1749 6.28747 25.2967C6.32254 25.3599 6.35011 25.4001 6.50315 25.4654ZM5.65703 27.293C6.66953 27.725 8.67109 28 13.375 28H19.625C24.3289 28 26.3305 27.725 27.343 27.293C28.3555 26.861 29 26.007 29 24C29 21.993 28.3555 21.139 27.343 20.707C26.3305 20.275 24.3289 20 19.625 20H13.375C8.67109 20 6.66953 20.275 5.65703 20.707C4.64453 21.139 4 21.993 4 24C4 26.007 4.64453 26.861 5.65703 27.293Z"/>
<path fill-rule="evenodd" clip-rule="evenodd" d="M18.4087 10H13.375C8.67109 10 6.66953 10.275 5.65703 10.707C4.64453 11.139 4 11.993 4 14C4 16.007 4.64453 16.861 5.65703 17.293C6.66953 17.725 8.67109 18 13.375 18H19.625C24.3289 18 26.3305 17.725 27.343 17.293C28.3555 16.861 29 16.007 29 14C29 11.993 28.3555 11.139 27.343 10.707C26.7065 10.4354 25.6793 10.2259 23.8357 10.1078L21.9167 12.0269C23.0601 12.0566 23.951 12.1099 24.6502 12.1805C25.7805 12.2947 26.283 12.4434 26.4968 12.5346C26.6499 12.5999 26.6775 12.6401 26.7125 12.7033C26.7801 12.8251 26.9167 13.1767 26.9167 14C26.9167 14.8233 26.7801 15.1749 26.7125 15.2967C26.6775 15.3599 26.6499 15.4001 26.4968 15.4654C26.283 15.5566 25.7805 15.7053 24.6502 15.8195C23.5398 15.9317 21.9457 16 19.625 16H13.375C11.0543 16 9.46023 15.9317 8.34979 15.8195C7.21946 15.7053 6.717 15.5566 6.50315 15.4654C6.35011 15.4001 6.32254 15.3599 6.28747 15.2967C6.21988 15.1749 6.08333 14.8233 6.08333 14C6.08333 13.1767 6.21988 12.8251 6.28747 12.7033C6.32254 12.6401 6.35011 12.5999 6.50315 12.5346C6.717 12.4434 7.21946 12.2947 8.34979 12.1805C9.46023 12.0683 11.0543 12 13.375 12H16.4208C16.4965 11.9163 16.5744 11.8343 16.6544 11.7543L18.4087 10Z"/>
</svg>
