<svg width="32" height="32" viewBox="0 0 32 32" fill="currentColor" xmlns="http://www.w3.org/2000/svg">
<path fill-rule="evenodd" clip-rule="evenodd" d="M24.3889 14.522C23.8389 14.472 23.4335 13.9856 23.4835 13.4356L23.5118 13.1177C23.6367 11.7152 23.7159 10.8258 23.7192 9.69314L18.281 15.1314C17.8905 15.5219 17.2573 15.5219 16.8668 15.1314C16.4763 14.7408 16.4763 14.1077 16.8668 13.7171L22.3076 8.27639L22.3061 8.27488C21.1522 8.27682 20.2581 8.35781 18.7696 8.49263L18.5595 8.51166C18.0095 8.56165 17.5231 8.15631 17.4731 7.6063C17.4231 7.05628 17.8402 6.64113 18.379 6.51982C20.2368 6.10157 21.651 6.10157 24.1526 6.35266C24.527 6.41847 24.9106 6.53277 25.1865 6.80865C25.4624 7.08454 25.5767 7.46816 25.6425 7.84252C25.8936 10.3442 25.8936 11.7584 25.4754 13.615L25.4753 13.6167C25.4253 14.1667 24.9389 14.572 24.3889 14.522Z"/>
<path fill-rule="evenodd" clip-rule="evenodd" d="M7.59114 17.4825C8.14114 17.5325 8.54654 18.0189 8.49654 18.5689L8.46824 18.8868C8.34325 20.2894 8.26408 21.1787 8.26075 22.3114L13.699 16.8732C14.0895 16.4827 14.7227 16.4827 15.1132 16.8732C15.5037 17.2637 15.5037 17.8969 15.1132 18.2874L9.67243 23.7282L9.67394 23.7297C10.8278 23.7277 11.7219 23.6467 13.2104 23.5119L13.2104 23.5119L13.4205 23.4929C13.9705 23.4429 14.4569 23.8482 14.5069 24.3982C14.5569 24.9483 14.1398 25.3634 13.601 25.4847C11.7432 25.903 10.329 25.903 7.82744 25.6519C7.45304 25.5861 7.06944 25.4718 6.79354 25.1959C6.51764 24.92 6.40334 24.5364 6.33754 24.162C6.08644 21.6603 6.08644 20.2461 6.50464 18.3895L6.50474 18.3878C6.55474 17.8378 7.04114 17.4325 7.59114 17.4825Z"/>
</svg>
