<svg width="32" height="32" viewBox="0 0 32 32" fill="currentColor" xmlns="http://www.w3.org/2000/svg">
<path fill-rule="evenodd" clip-rule="evenodd" d="M17.6799 7.43349C18.2299 7.48349 18.6353 7.96989 18.5853 8.51989L18.557 8.83779C18.4321 10.2403 18.3529 11.1297 18.3496 12.2624L23.7878 6.82418C24.1783 6.43365 24.8115 6.43365 25.202 6.82418C25.5925 7.2147 25.5925 7.84787 25.202 8.23839L19.7612 13.6791L19.7627 13.6807C20.9166 13.6787 21.8107 13.5977 23.2992 13.4629L23.2993 13.4629L23.5094 13.4439C24.0594 13.3939 24.5458 13.7992 24.5958 14.3492C24.6458 14.8993 24.2287 15.3144 23.6899 15.4357C21.8321 15.854 20.4178 15.854 17.9162 15.6029C17.5418 15.5371 17.1582 15.4228 16.8823 15.1469C16.6064 14.871 16.4922 14.4874 16.4264 14.113C16.1752 11.6113 16.1752 10.1971 16.5934 8.34049L16.5935 8.33879C16.6436 7.78879 17.1299 7.38349 17.6799 7.43349Z"/>
<path fill-rule="evenodd" clip-rule="evenodd" d="M14.3 24.5711C13.75 24.5211 13.3446 24.0347 13.3946 23.4847L13.4229 23.1668C13.5479 21.7642 13.6271 20.8748 13.6304 19.7422L8.19222 25.1804C7.8017 25.5709 7.16853 25.5709 6.77801 25.1804C6.38748 24.7898 6.38748 24.1567 6.77801 23.7662L12.2188 18.3254L12.2172 18.3239C11.0634 18.3258 10.1693 18.4068 8.6808 18.5416L8.68074 18.5417L8.47064 18.5607C7.92064 18.6107 7.43425 18.2053 7.38425 17.6553C7.33425 17.1053 7.75134 16.6901 8.29014 16.5688C10.1479 16.1506 11.5621 16.1506 14.0637 16.4017C14.4381 16.4675 14.8217 16.5818 15.0976 16.8577C15.3735 17.1336 15.4878 17.5172 15.5536 17.8915C15.8047 20.3933 15.8047 21.8075 15.3865 23.6641L15.3864 23.6658C15.3364 24.2158 14.85 24.6211 14.3 24.5711Z"/>
</svg>
