<svg width="32" height="32" viewBox="0 0 32 32" fill="currentColor" xmlns="http://www.w3.org/2000/svg">
<path fill-rule="evenodd" clip-rule="evenodd" d="M13.3554 3.05058C14.1595 3.01686 15.0384 3 16 3C16.9616 3 17.8405 3.01686 18.6446 3.05058C19.1964 3.07372 19.625 3.5398 19.6018 4.0916C19.5787 4.6434 19.1126 5.07196 18.5608 5.04882C17.7893 5.01646 16.9387 5 16 5C15.0613 5 14.2107 5.01646 13.4392 5.04882C12.8874 5.07196 12.4213 4.6434 12.3982 4.0916C12.375 3.5398 12.8036 3.07372 13.3554 3.05058ZM9.20662 4.45758C9.36875 4.98553 9.07218 5.54495 8.54423 5.70707C7.62269 5.99006 7.0729 6.33611 6.70391 6.70511C6.33517 7.0735 5.98897 7.62321 5.70616 8.54489C5.54415 9.07288 4.9848 9.36956 4.45681 9.20755C3.92882 9.04554 3.63214 8.48619 3.79415 7.9582C4.14752 6.80656 4.63557 5.94454 5.28969 5.29089M5.28969 5.29089C5.94349 4.63722 6.80565 4.14878 7.95713 3.79519C8.48508 3.63306 9.0445 3.92963 9.20662 4.45758M22.7934 4.45758C22.9555 3.92963 23.5149 3.63306 24.0429 3.79519C25.1945 4.14884 26.0565 4.63706 26.7103 5.29089C27.3642 5.9448 27.8523 6.80665 28.2057 7.95824C28.3677 8.48622 28.0711 9.04559 27.5431 9.20763C27.0151 9.36968 26.4558 9.07303 26.2937 8.54505C26.011 7.62369 25.6651 7.07409 25.2961 6.70511C24.9271 6.33611 24.3773 5.99006 23.4558 5.70707C22.9278 5.54495 22.6313 4.98553 22.7934 4.45758ZM4.09144 12.3985C4.64324 12.4216 5.07183 12.8876 5.04873 13.4394C5.01643 14.2109 5 15.0614 5 16C5 16.9387 5.01644 17.7893 5.04874 18.5608C5.07185 19.1126 4.64325 19.5787 4.09145 19.6018C3.53965 19.6249 3.0736 19.1963 3.05049 18.6445C3.01683 17.8404 3 16.9615 3 16C3 15.0386 3.01682 14.1598 3.05048 13.3558C3.07358 12.804 3.53964 12.3754 4.09144 12.3985ZM27.9086 12.3985C28.4604 12.3754 28.9264 12.804 28.9495 13.3558C28.9832 14.1598 29 15.0385 29 16C29 16.9615 28.9832 17.8404 28.9495 18.6445C28.9264 19.1963 28.4604 19.6249 27.9085 19.6018C27.3567 19.5787 26.9282 19.1126 26.9513 18.5608C26.9836 17.7893 27 16.9387 27 16C27 15.0614 26.9836 14.2109 26.9513 13.4395C26.9282 12.8877 27.3568 12.4216 27.9086 12.3985ZM4.45695 22.7932C4.98494 22.6312 5.5443 22.9279 5.70631 23.4559C5.98911 24.3775 6.335 24.9272 6.70391 25.2961C7.07282 25.665 7.62253 26.0109 8.54413 26.2937C9.07212 26.4557 9.3688 27.0151 9.20678 27.543C9.04477 28.071 8.48541 28.3677 7.95742 28.2057C6.80571 27.8523 5.94365 27.3643 5.28969 26.7103C4.63574 26.0564 4.14771 25.1943 3.7943 24.0426C3.63229 23.5146 3.92897 22.9552 4.45695 22.7932ZM27.543 22.7932C28.071 22.9552 28.3677 23.5146 28.2057 24.0426C27.8523 25.1943 27.3643 26.0564 26.7103 26.7103C26.0564 27.3643 25.1943 27.8523 24.0426 28.2057C23.5146 28.3677 22.9552 28.071 22.7932 27.543C22.6312 27.0151 22.9279 26.4557 23.4559 26.2937C24.3775 26.0109 24.9272 25.665 25.2961 25.2961C25.665 24.9272 26.0109 24.3775 26.2937 23.4559C26.4557 22.9279 27.0151 22.6312 27.543 22.7932ZM12.3982 27.9085C12.4213 27.3567 12.8874 26.9282 13.4392 26.9513C14.2107 26.9836 15.0613 27 16 27C16.9387 27 17.7893 26.9836 18.5608 26.9513C19.1126 26.9282 19.5787 27.3567 19.6018 27.9085C19.6249 28.4604 19.1963 28.9264 18.6445 28.9495C17.8404 28.9832 16.9615 29 16 29C15.0385 29 14.1596 28.9832 13.3555 28.9495C12.8037 28.9264 12.3751 28.4604 12.3982 27.9085Z"/>
</svg>
