<svg width="32" height="32" viewBox="0 0 32 32" fill="currentColor" xmlns="http://www.w3.org/2000/svg">
<path d="M27.5505 1.85837C27.9405 1.46737 28.5745 1.46737 28.9645 1.85837L29.3175 2.21137C29.7085 2.60237 29.7085 3.23537 29.3175 3.62537L18.4315 14.5124C17.8325 15.1114 17.1255 15.5914 16.3485 15.9284C15.6475 16.2314 14.9375 15.5184 15.2445 14.8184L15.2475 14.8124C15.5845 14.0454 16.0615 13.3474 16.6545 12.7544L27.5505 1.85837Z"/>
<path d="M22.699 11.2425C22.3908 11.5507 22.5971 12.0809 23.0318 12.1118C23.3212 12.1323 23.5844 12.1553 23.8242 12.1805C24.9093 12.2947 25.3917 12.4434 25.597 12.5346C25.7439 12.5999 25.7704 12.6401 25.804 12.7033C25.8689 12.8251 26 13.1767 26 14V18C26 18.8233 25.8689 19.1749 25.804 19.2967C25.7704 19.3599 25.7439 19.4001 25.597 19.4654C25.3917 19.5566 24.9093 19.7053 23.8242 19.8195C22.7582 19.9317 21.2279 20 19 20H13C10.7721 20 9.24182 19.9317 8.1758 19.8195C7.09068 19.7053 6.60832 19.5566 6.40303 19.4654C6.2561 19.4001 6.22963 19.3599 6.19598 19.2967C6.13108 19.1749 6 18.8233 6 18V14C6 13.1767 6.13108 12.8251 6.19598 12.7033C6.22963 12.6401 6.2561 12.5999 6.40303 12.5346C6.60832 12.4434 7.09068 12.2947 8.1758 12.1805C9.24182 12.0683 10.7721 12 13 12H16.2008C16.3334 12 16.4605 11.9473 16.5543 11.8536L17.5543 10.8536C17.8693 10.5386 17.6462 10 17.2008 10H13C8.48425 10 6.56275 10.275 5.59075 10.707C4.61875 11.139 4 11.993 4 14V18C4 20.007 4.61875 20.861 5.59075 21.293C6.56275 21.725 8.48425 22 13 22H19C23.5158 22 25.4373 21.725 26.4093 21.293C27.3813 20.861 28 20.007 28 18V14C28 11.993 27.3813 11.139 26.4093 10.707C25.9199 10.4895 25.1899 10.3118 24.0094 10.189C23.8614 10.1736 23.7146 10.2268 23.6094 10.3321L22.699 11.2425Z"/>
</svg>
