<svg width="32" height="32" viewBox="0 0 32 32" fill="currentColor" xmlns="http://www.w3.org/2000/svg">
<path fill-rule="evenodd" clip-rule="evenodd" d="M4 23.25C4 22.698 4.448 22.25 5 22.25H27C27.552 22.25 28 22.698 28 23.25C28 23.802 27.552 24.25 27 24.25H5C4.448 24.25 4 23.802 4 23.25Z"/>
<path fill-rule="evenodd" clip-rule="evenodd" d="M14 7.77362C14.623 7.75745 15.2887 7.75 16 7.75C26.0833 7.75 27 9.25 27 15.75C27 22.25 26.0833 23.75 16 23.75C15.2887 23.75 14.623 23.7426 14 23.7264C5.7919 23.5135 5 21.7914 5 15.75C5 9.70856 5.7919 7.98651 14 7.77362Z"/>
</svg>
