<svg width="32" height="32" viewBox="0 0 32 32" fill="currentColor" xmlns="http://www.w3.org/2000/svg">
<path fill-rule="evenodd" clip-rule="evenodd" d="M4 23.25C4 22.698 4.448 22.25 5 22.25H27C27.552 22.25 28 22.698 28 23.25C28 23.802 27.552 24.25 27 24.25H5C4.448 24.25 4 23.802 4 23.25Z"/>
<path fill-rule="evenodd" clip-rule="evenodd" d="M14 7.77362C14.623 7.75745 15.2887 7.75 16 7.75C26.0833 7.75 27 9.25 27 15.75C27 22.25 26.0833 23.75 16 23.75C15.2887 23.75 14.623 23.7426 14 23.7264C5.7919 23.5135 5 21.7914 5 15.75C5 9.70856 5.7919 7.98651 14 7.77362ZM7 15.75C6.99951 17.3314 7.03903 18.4178 7.24951 19.2923C7.41556 20.091 7.50861 20.3112 7.96548 20.6237C8.3237 20.9092 8.99329 21.2217 10.3453 21.4395C11.7291 21.6655 13.5027 21.7495 15.9492 21.75H16C18.4727 21.7505 20.2614 21.6671 21.6547 21.4395C23.0067 21.2217 23.6763 20.9092 24.0345 20.6237C24.4914 20.3112 24.5844 20.091 24.7505 19.2923C24.961 18.4178 25.0005 17.3314 25 15.75C25.0005 14.1686 24.961 13.0822 24.7505 12.2077C24.5844 11.409 24.4914 11.1888 24.0345 10.8763C23.6763 10.5908 23.0067 10.2783 21.6547 10.0605C20.2614 9.83295 18.4727 9.74945 16 9.75H15.9492C13.5027 9.75055 11.7291 9.83453 10.3453 10.0605C8.99329 10.2783 8.3237 10.5908 7.96548 10.8763C7.50861 11.1888 7.41556 11.409 7.24951 12.2077C7.03903 13.0822 6.99951 14.1686 7 15.75Z"/>
</svg>
