<svg width="32" height="32" viewBox="0 0 32 32" fill="currentColor" xmlns="http://www.w3.org/2000/svg">
<path fill-rule="evenodd" clip-rule="evenodd" d="M10.3428 17.9999C10.0364 18.5081 9.84291 18.9 9.73687 19.2338C10.0707 19.1278 10.4625 18.9343 10.9708 18.6279C12.1943 17.8964 13.6708 16.7163 15.1924 15.1925C16.7162 13.6709 17.8963 12.1944 18.6278 10.9709C18.9342 10.4626 19.1276 10.0708 19.2337 9.73695C18.8998 9.84304 18.5081 10.0365 17.9998 10.3429C16.7762 11.0744 15.2998 12.2545 13.7782 13.7783C12.2544 15.2999 11.0743 16.7763 10.3428 17.9999ZM12.364 12.3641C10.7636 13.9666 9.43178 15.6352 8.62779 16.9709C8.21748 17.6575 7.89759 18.3562 7.754 18.8983C7.62193 19.412 7.52172 20.2497 8.12132 20.8493C8.72092 21.4489 9.55871 21.3487 10.0724 21.2167C10.6145 21.0731 11.3131 20.7532 11.9998 20.3429C13.3355 19.5389 15.004 18.2071 16.6066 16.6067C18.207 15.0042 19.5388 13.3356 20.3428 11.9999C20.753 11.3133 21.073 10.6146 21.2165 10.0725C21.3486 9.55883 21.4488 8.72102 20.8492 8.12142C20.2496 7.52182 19.4118 7.62206 18.8982 7.75412C18.3561 7.89766 17.6574 8.21761 16.9708 8.6279C15.6351 9.43189 13.9665 10.7637 12.364 12.3641Z"/>
<path fill-rule="evenodd" clip-rule="evenodd" d="M23.5854 26.1153C25.1489 26.6365 26.6364 25.149 26.1152 23.5855L21.0908 8.5123L19.1935 9.14476L24.2179 24.218L9.14466 19.1936L8.5122 21.0909L23.5854 26.1153Z"/>
<path fill-rule="evenodd" clip-rule="evenodd" d="M6.91123 11.4357C6.75523 11.6805 6.64483 11.8917 6.57943 12.0891C6.54403 12.1941 6.52243 12.2955 6.51344 12.3957C6.50684 12.4653 6.50684 12.5349 6.51344 12.6045C6.52243 12.7047 6.54463 12.8061 6.57943 12.9123C6.64483 13.1091 6.75523 13.3197 6.91123 13.5645C6.92863 13.5921 6.94602 13.6197 6.96462 13.6473C7.09362 13.8435 6.84403 14.0937 6.64903 13.9647C6.62083 13.9461 6.59323 13.9281 6.56623 13.9107C6.32204 13.7541 6.11144 13.6431 5.91525 13.5777C5.81025 13.5423 5.70945 13.5207 5.60986 13.5117C5.54086 13.5051 5.47186 13.5051 5.40226 13.5117C5.30266 13.5207 5.20187 13.5423 5.09687 13.5777C4.90067 13.6431 4.69008 13.7541 4.44588 13.9107C4.41888 13.9281 4.39128 13.9461 4.36368 13.9647C4.16809 14.0937 3.9191 13.8435 4.04809 13.6473C4.06609 13.6191 4.08409 13.5921 4.10149 13.5645C4.25509 13.3227 4.36488 13.1139 4.42968 12.9189C4.46448 12.8145 4.48668 12.7143 4.49568 12.6153C4.50228 12.5415 4.50228 12.4689 4.49508 12.3951C4.48488 12.2961 4.46208 12.1959 4.42608 12.0915C4.35949 11.8977 4.24789 11.6901 4.09129 11.4495C4.07389 11.4225 4.05529 11.3955 4.03669 11.3679C3.9059 11.1729 4.15189 10.9198 4.34869 11.0469C4.37688 11.0649 4.40448 11.0829 4.43208 11.0997C4.68108 11.2557 4.89467 11.3655 5.09387 11.4297C5.20007 11.4639 5.30206 11.4849 5.40346 11.4927C5.46886 11.4981 5.53366 11.4981 5.59906 11.4921C5.70045 11.4831 5.80245 11.4615 5.90805 11.4261C6.10664 11.3601 6.31964 11.2479 6.56623 11.0895C6.59323 11.0721 6.62083 11.0541 6.64903 11.0356C6.84403 10.9066 7.09362 11.1567 6.96462 11.3529C6.95382 11.3691 6.94362 11.3847 6.93343 11.4003C6.92623 11.4123 6.91843 11.4237 6.91123 11.4357Z"/>
<path fill-rule="evenodd" clip-rule="evenodd" d="M10.522 2.86553C10.6685 3.5268 10.8348 4.05741 11.0526 4.49099C11.1675 4.72264 11.2991 4.92557 11.4496 5.10574C11.5535 5.23146 11.6684 5.34629 11.7941 5.45023C11.9742 5.6007 12.1782 5.73137 12.4108 5.84917C12.8434 6.06597 13.373 6.23128 14.0343 6.37779C14.1085 6.39462 14.1828 6.41145 14.259 6.4263C14.7955 6.53717 14.7965 7.36178 14.262 7.47067C14.1847 7.48651 14.1095 7.50235 14.0363 7.51819C13.375 7.66272 12.8444 7.82704 12.4128 8.04285C12.1811 8.15768 11.9792 8.28835 11.8 8.43783C11.6753 8.54078 11.5614 8.65462 11.4575 8.78035C11.308 8.95952 11.1774 9.16147 11.0625 9.39311C10.8467 9.82472 10.6824 10.3553 10.5379 11.0166C10.522 11.0898 10.5062 11.1651 10.4913 11.2413C10.3815 11.7769 9.55783 11.7749 9.44696 11.2383C9.43013 11.1621 9.41528 11.0879 9.39845 11.0136C9.25294 10.3613 9.0896 9.83561 8.87478 9.40697C8.75995 9.17731 8.63126 8.97536 8.48277 8.79717C8.3719 8.66452 8.25212 8.54474 8.11848 8.43486C7.93831 8.28835 7.73538 8.16065 7.50374 8.0478C7.07411 7.83793 6.54747 7.67955 5.89214 7.54096C5.81888 7.52512 5.74365 7.51126 5.66742 7.49641C5.12989 7.39049 5.11801 6.56687 5.65257 6.45204C5.7288 6.43521 5.80403 6.41937 5.87729 6.40155C6.54549 6.24811 7.07906 6.07685 7.51363 5.85412C7.74528 5.73533 7.94821 5.60169 8.12838 5.44726C8.24519 5.34827 8.3521 5.24136 8.4501 5.12356C8.60255 4.94141 8.7352 4.73748 8.85102 4.50485C9.0698 4.06829 9.23611 3.53175 9.38163 2.86355C9.39747 2.7903 9.4133 2.71506 9.42914 2.63785C9.53803 2.10329 10.3626 2.10428 10.4735 2.64082C10.4824 2.68537 10.4913 2.72793 10.5002 2.7705C10.5082 2.80218 10.5141 2.83386 10.522 2.86553Z"/>
</svg>
