<svg width="32" height="32" viewBox="0 0 32 32" fill="currentColor" xmlns="http://www.w3.org/2000/svg">
<path d="M13 7C12.448 7 12 7.448 12 8V9.019C8.275 9.168 7 10.234 7 13C7 16 7.857 17 13 17C17 17 17 17.5 17 18.998V19.002C17 20.5 17 21 13 21C10.065 21 9.283 20.731 9.075 19.995C8.925 19.463 8.552 19 8 19C7.448 19 6.985 19.452 7.076 19.997C7.441 22.2 9.128 22.889 12 22.985V24C12 24.552 12.448 25 13 25C13.552 25 14 24.552 14 24V22.985C17.725 22.86 19 21.95 19 19C19 18.1873 18.9447 17.5293 18.778 17H20V16.9901H25.9208C25.1175 17.7887 24.4326 18.3616 23.3525 19.265L23.1077 19.4697C22.6834 19.8233 22.6262 20.4539 22.9797 20.8782C23.3333 21.3024 23.9638 21.3598 24.3881 21.0062L24.3893 21.0051C25.9979 19.988 26.9978 18.988 28.5893 17.0414C28.8075 16.7302 28.9979 16.3781 28.9979 15.9879C28.9979 15.5978 28.8075 15.2457 28.5893 14.9344C26.9979 12.988 25.9979 11.988 24.3885 10.9701C23.9217 10.6749 23.3332 10.6735 22.9797 11.0978C22.6261 11.522 22.6834 12.1526 23.1077 12.5062L23.2697 12.6413C24.4176 13.5985 25.1071 14.1734 25.9244 14.988L25.9244 14.9901H18.23C18.1821 14.9901 18.1349 14.9935 18.0888 15H13C9.606 15 9 15 9 13C9 11 9.75 11 13 11C16.0641 11 16.3256 11.4009 16.6824 11.9479C16.704 11.9811 16.726 12.0148 16.749 12.049C17.057 12.507 17.447 13 17.999 12.999C18.551 12.999 19.016 12.546 18.909 12.004C18.537 10.111 17.006 9.015 14 9.015V8C14 7.448 13.552 7 13 7Z"/>
</svg>
