<svg width="32" height="32" viewBox="0 0 32 32" fill="currentColor" xmlns="http://www.w3.org/2000/svg">
<path fill-rule="evenodd" clip-rule="evenodd" d="M16 6C21.1 6 23.247 6.576 24.336 7.665C25.425 8.754 26 10.9 26 16C26 21.1 25.425 23.247 24.336 24.336C23.247 25.425 21.1 26 16 26C10.9 26 8.753 25.425 7.664 24.336C6.575 23.247 6 21.1 6 16C6 10.9 6.575 8.753 7.664 7.665C8.753 6.576 10.9 6 16 6ZM28 16C28 6 26 4 16 4C6 4 4 6 4 16C4 26 6 28 16 28C26 28 28 26 28 16Z"/>
<path d="M13.4801 17.2453C13.3707 17.8453 12.9363 20.6422 12.8082 21.4328C12.7988 21.4891 12.7769 21.5109 12.7144 21.5109H10.3832C10.1457 21.5109 9.97382 21.3047 10.0051 21.0766L11.8363 9.45469C11.8832 9.15469 12.1519 8.92657 12.4613 8.92657C17.2207 8.92657 17.6207 8.81094 18.8363 9.28282C20.7144 10.0109 20.8863 11.7672 20.2113 13.6672C19.5394 15.6234 17.9457 16.4641 15.8332 16.4891C14.4769 16.5109 13.6613 16.2703 13.4801 17.2453ZM21.1582 12.7484C21.102 12.7078 21.0801 12.6922 21.0645 12.7891C21.002 13.1453 20.9051 13.4922 20.7894 13.8391C19.5426 17.3953 16.0863 17.0859 14.3988 17.0859C14.2082 17.0859 14.0832 17.1891 14.0582 17.3797C13.3519 21.7672 13.2113 22.6828 13.2113 22.6828C13.1801 22.9047 13.3207 23.0859 13.5426 23.0859H15.5269C15.7957 23.0859 16.0176 22.8891 16.0707 22.6203C16.0926 22.4516 16.0363 22.8109 16.5207 19.7672C16.6644 19.0797 16.9676 19.1516 17.4363 19.1516C19.6551 19.1516 21.3863 18.2516 21.9019 15.6422C22.1051 14.5547 22.0457 13.4109 21.1582 12.7484Z"/>
</svg>
