<svg width="32" height="32" viewBox="0 0 32 32" fill="currentColor" xmlns="http://www.w3.org/2000/svg"><path fill-rule="evenodd" clip-rule="evenodd" d="M11.834 18.0432C9.9399 18.2708 8.3173 19.3809 7.38921 20.9504C6.9165 21.7498 6.07607 22.692 5.28408 22.207C4.90936 21.9776 4.96057 21.4474 5.12326 21.0393C5.81527 19.3031 7.09792 17.8663 8.72295 16.9772C7.84386 16.173 7.55752 14.8729 7.55752 13C7.55752 10.2386 9.7961 8 12.5575 8C13.3074 8 14.0187 8.16508 14.6571 8.46087C14.1232 8.92285 13.6716 9.47745 13.3273 10.0997C13.0816 10.0346 12.8236 10 12.5575 10C10.9007 10 9.55752 11.3431 9.55752 13C9.55752 14.6826 9.82882 15.2411 10.0271 15.4559C10.1898 15.6321 10.7068 16 12.5575 16C12.7049 16 12.8438 15.9977 12.9748 15.9933C13.062 16.2464 13.1669 16.4881 13.2923 16.7168C12.7589 17.1047 12.2698 17.5498 11.834 18.0432ZM13.2657 18.0206C14.2832 18.0316 15.3428 17.8686 16.1098 17.2238C16.2067 17.1425 16.3014 17.0601 16.392 16.9772C16.7125 16.6841 16.9541 16.3251 17.1319 15.8965C17.1231 15.895 17.1143 15.8935 17.1057 15.8919C16.556 15.794 16.2798 15.648 16.1363 15.5343C16.1001 15.5056 16.0723 15.4789 16.0508 15.4557C15.8528 15.2407 15.5808 14.6827 15.5808 12.9998C15.5808 12.5855 15.6647 12.1909 15.8165 11.832C16.0433 11.2957 16.4216 10.8392 16.8978 10.5159C16.5606 9.92801 16.1073 9.41512 15.5693 9.00851C15.0312 9.41519 14.5778 9.92818 14.2406 10.5162C15.0354 11.0558 15.5575 11.9669 15.5575 13C15.5575 14.6826 15.2862 15.2411 15.0879 15.4559C14.9798 15.573 14.7154 15.7747 14.0072 15.8968C14.0468 15.9922 14.0895 16.0841 14.1356 16.1725C14.2965 16.4815 14.4979 16.7489 14.7468 16.9766C14.4455 17.1414 14.156 17.3251 13.8799 17.5259C13.667 17.6808 13.462 17.8459 13.2657 18.0206Z" /><path fill-rule="evenodd" clip-rule="evenodd" d="M21.5805 12.9998C21.5805 14.6827 21.3095 15.2407 21.1115 15.4557C20.9485 15.6316 20.4316 15.9996 18.5807 15.9996C16.7307 15.9996 16.2138 15.6316 16.0508 15.4557C15.8528 15.2407 15.5808 14.6827 15.5808 12.9998C15.5808 11.3428 16.9237 9.99991 18.5807 9.99991C20.2376 9.99991 21.5805 11.3428 21.5805 12.9998ZM22.4155 16.9766C23.2944 16.1726 23.5804 14.8727 23.5804 12.9998C23.5804 10.2389 21.3425 8 18.5807 8C15.8198 8 13.5809 10.2389 13.5809 12.9998C13.5809 14.8727 13.8679 16.1726 14.7468 16.9766C13.0819 17.8875 11.777 19.3725 11.098 21.1654C10.974 21.4934 10.944 21.8734 11.149 22.1583C11.718 22.9473 12.8229 22.0473 13.2789 21.1884C14.2868 19.2915 16.2828 17.9995 18.5807 17.9995C20.8785 17.9995 22.8755 19.2915 23.8834 21.1884C24.3394 22.0473 25.4443 22.9473 26.0123 22.1583C26.2173 21.8734 26.1883 21.4934 26.0643 21.1654C25.3843 19.3725 24.0794 17.8875 22.4155 16.9766Z"/></svg>
