<svg width="32" height="32" viewBox="0 0 32 32" fill="currentColor" xmlns="http://www.w3.org/2000/svg">
<path fill-rule="evenodd" clip-rule="evenodd" d="M8.02362 18C8.00745 17.377 8 16.7113 8 16C8 5.9167 9.5 5 16 5C22.5 5 24 5.9167 24 16C24 16.7113 23.9926 17.377 23.9764 18C23.7635 26.2081 22.0414 27 16 27C9.95856 27 8.23651 26.2081 8.02362 18ZM16 25C17.5814 25.0005 18.6678 24.961 19.5423 24.7505C20.341 24.5844 20.5612 24.4914 20.8737 24.0345C21.1592 23.6763 21.4717 23.0067 21.6895 21.6547C21.9155 20.2709 21.9995 18.4973 22 16.0508V16C22.0005 13.5273 21.9171 11.7386 21.6895 10.3453C21.4717 8.9933 21.1592 8.3237 20.8737 7.9655C20.5612 7.50861 20.341 7.4156 19.5423 7.2495C18.6678 7.039 17.5814 6.9995 16 7C14.4186 6.9995 13.3322 7.039 12.4577 7.2495C11.659 7.4156 11.4388 7.50861 11.1263 7.9655C10.8408 8.3237 10.5283 8.9933 10.3105 10.3453C10.0829 11.7386 9.99945 13.5273 10 16V16.0508C10.0005 18.4973 10.0845 20.2709 10.3105 21.6547C10.5283 23.0067 10.8408 23.6763 11.1263 24.0345C11.4388 24.4914 11.659 24.5844 12.4577 24.7505C13.3322 24.961 14.4186 25.0005 16 25Z"/>
<path fill-rule="evenodd" clip-rule="evenodd" d="M13 9C13 8.448 13.448 8 14 8H18C18.552 8 19 8.448 19 9C19 9.552 18.552 10 18 10H14C13.448 10 13 9.552 13 9Z"/>
</svg>
