<svg width="32" height="32" viewBox="0 0 32 32" fill="currentColor" xmlns="http://www.w3.org/2000/svg">
<path fill-rule="evenodd" clip-rule="evenodd" d="M8.0497 13.1829C8.31848 6.81802 9.82383 6.03955 16 6.03955C22.1762 6.03955 23.6815 6.81802 23.9503 13.1829C25.1656 13.3059 25.9118 13.4859 26.4093 13.707C27.3813 14.139 28 14.993 28 17V19C28 21.007 27.3813 21.861 26.4093 22.293C25.9874 22.4805 25.3868 22.6384 24.4729 22.7571C24.6373 22.1329 24.7498 21.4396 24.8276 20.6776C25.2395 20.5994 25.4707 20.5215 25.597 20.4654C25.7439 20.4001 25.7704 20.3599 25.804 20.2967C25.8689 20.1749 26 19.8233 26 19V17C26 16.1767 25.8689 15.8251 25.804 15.7033C25.7704 15.6401 25.7439 15.5999 25.597 15.5346C25.3917 15.4434 24.9093 15.2947 23.8242 15.1805C22.7582 15.0683 21.2279 15 19 15H13C10.7721 15 9.24182 15.0683 8.1758 15.1805C7.09068 15.2947 6.60832 15.4434 6.40303 15.5346C6.2561 15.5999 6.22963 15.6401 6.19598 15.7033C6.13108 15.8251 6 16.1767 6 17V19C6 19.8233 6.13108 20.1749 6.19598 20.2967C6.22963 20.3599 6.2561 20.4001 6.40303 20.4654C6.52933 20.5215 6.76052 20.5994 7.17245 20.6776C7.25024 21.4396 7.36264 22.1328 7.52706 22.7571C6.61319 22.6384 6.01256 22.4805 5.59075 22.293C4.61875 21.861 4 21.007 4 19V17C4 14.993 4.61875 14.139 5.59075 13.707C6.08821 13.4859 6.83436 13.3059 8.0497 13.1829ZM12.229 8.28955C13.139 8.08555 14.299 8.03955 15.999 8.03955H16.001C17.701 8.03955 18.861 8.08555 19.771 8.28955L19.786 8.29255C20.576 8.46555 20.89 8.70155 21.077 8.93055H21.078C21.308 9.21255 21.576 9.76555 21.756 10.9736L21.757 10.9785C21.8478 11.5779 21.9077 12.259 21.9453 13.0505C21.1107 13.0175 20.1377 13 19 13H13C11.8623 13 10.8893 13.0175 10.0547 13.0505C10.0923 12.259 10.1522 11.5779 10.243 10.9785L10.244 10.9736C10.424 9.76555 10.692 9.21255 10.922 8.93055H10.923C11.11 8.70155 11.424 8.46555 12.214 8.29255L12.229 8.28955Z"/>
<path fill-rule="evenodd" clip-rule="evenodd" d="M8 18C7.448 18 7 18.448 7 19C7 19.552 7.448 20 8 20H8.11652C8.5279 25.317 10.215 26 16 26C21.785 26 23.4721 25.317 23.8835 20H24C24.552 20 25 19.552 25 19C25 18.448 24.552 18 24 18H8ZM10.243 21.061C10.1933 20.7333 10.1529 20.3812 10.1203 20H21.8796C21.8471 20.3812 21.8066 20.7333 21.757 21.061L21.756 21.066C21.576 22.274 21.308 22.827 21.078 23.109C20.891 23.338 20.576 23.574 19.786 23.747L19.771 23.75C18.861 23.954 17.701 24 16.001 24H15.999C14.299 24 13.139 23.954 12.229 23.75L12.214 23.747C11.424 23.574 11.11 23.338 10.923 23.109H10.922C10.692 22.827 10.424 22.274 10.244 21.066L10.243 21.061Z"/>
</svg>
