<svg width="32" height="32" viewBox="0 0 32 32" fill="currentColor" xmlns="http://www.w3.org/2000/svg">
<path fill-rule="evenodd" clip-rule="evenodd" d="M6.68691 18.8378C7.04417 19.0175 7.41332 19.2039 7.72627 19.4455C8.94072 20.3822 9.82261 22.0343 9.82261 22.0343C9.82261 22.0343 11.5761 25.2313 13.2387 26.2529C16.0096 27.9551 19.0566 28.4679 21.6552 26.3636C22.9161 25.3425 23.4134 22.9741 23.8123 21.0714L23.8134 21.0689C23.9434 20.449 24.0625 19.8802 24.1952 19.4227C24.5406 18.2261 25.4319 15.91 26.0635 14.2666C26.4151 13.3533 26.6863 12.6485 26.7383 12.4614C27.0021 11.5181 26.4171 10.5946 25.625 10.3224C24.833 10.0501 23.6757 10.4189 23.433 11.4948C23.1904 12.5708 22.0814 15.7504 22.0814 15.7504C22.0814 15.7504 22.7321 9.23362 22.9321 8.18739C23.1322 7.13939 22.4524 6.13299 21.5365 6.03762C20.6215 5.94145 19.8057 6.563 19.6468 7.32197C19.4878 8.08095 18.659 14.8787 18.659 14.8787C18.659 14.8787 18.5743 6.75572 18.5747 5.99808C18.5742 5.24124 18.0295 4.35342 17.1697 4.26305C16.3081 4.1725 15.4794 4.84037 15.3737 5.71743C15.269 6.59369 15.1886 14.2935 15.1886 14.2935C15.1886 14.2935 14.2471 7.76319 13.9987 6.83092C13.7492 5.89944 12.7562 5.23625 11.9263 5.51257C11.0962 5.79066 10.522 6.56179 10.576 7.46913C10.5895 7.71711 10.7427 8.54579 10.9434 9.63232C11.4777 12.5284 12.3502 17.258 11.8338 17.6762C11.3647 18.0561 11.1146 17.8157 10.6251 17.344C10.3735 17.1016 10.0572 16.7975 9.61652 16.4866C8.44958 15.6629 5.25264 15.2666 5.19813 17.2064C5.17443 18.0741 5.9034 18.4414 6.68691 18.8378Z"/>
</svg>
