<svg width="32" height="32" viewBox="0 0 32 32" fill="currentColor" xmlns="http://www.w3.org/2000/svg">
<path fill-rule="evenodd" clip-rule="evenodd" d="M13 11C13 11.9336 12.9339 12.4739 12.8623 12.7763C12.8563 12.8018 12.8504 12.8247 12.8449 12.8449C12.8247 12.8504 12.8018 12.8563 12.7763 12.8623C12.4739 12.9339 11.9336 13 11 13C10.0664 13 9.52605 12.9339 9.22373 12.8623C9.19815 12.8563 9.17535 12.8504 9.15511 12.8449C9.14958 12.8247 9.14374 12.8018 9.13768 12.7763C9.06609 12.4739 9 11.9336 9 11C9 10.0664 9.06609 9.52605 9.13768 9.22373C9.14374 9.19815 9.14958 9.17535 9.15511 9.15511C9.17535 9.14958 9.19815 9.14374 9.22373 9.13768C9.52605 9.06609 10.0664 9 11 9C11.9336 9 12.4739 9.06609 12.7763 9.13768C12.8018 9.14374 12.8247 9.14958 12.8449 9.15511C12.8504 9.17535 12.8563 9.19815 12.8623 9.22373C12.9339 9.52605 13 10.0664 13 11ZM12.7984 12.9808L12.7999 12.978C12.7989 12.98 12.7984 12.9809 12.7984 12.9808ZM12.978 12.7999L12.9808 12.7984C12.9809 12.7984 12.98 12.7989 12.978 12.7999ZM9.01916 12.7984L9.02199 12.7999C9.02004 12.7989 9.01913 12.7984 9.01916 12.7984ZM9.20013 12.978L9.20158 12.9808C9.20156 12.9809 9.20106 12.98 9.20013 12.978ZM9.20013 9.02199L9.20158 9.01916C9.20157 9.01915 9.20144 9.01937 9.20119 9.01985L9.20013 9.02199ZM9.02199 9.20013L9.01916 9.20158C9.01913 9.20156 9.02004 9.20106 9.02199 9.20013ZM12.9808 9.20158L12.978 9.20013C12.98 9.20106 12.9809 9.20156 12.9808 9.20158ZM12.7999 9.02199L12.7984 9.01916C12.7984 9.01913 12.7989 9.02004 12.7999 9.02199ZM14.293 14.293C14.725 13.861 15 13.007 15 11C15 8.993 14.725 8.139 14.293 7.707C13.861 7.275 13.007 7 11 7C8.993 7 8.139 7.275 7.707 7.707C7.275 8.139 7 8.993 7 11C7 13.007 7.275 13.861 7.707 14.293C8.139 14.725 8.993 15 11 15C13.007 15 13.861 14.725 14.293 14.293ZM23 11C23 11.9336 22.9339 12.4739 22.8623 12.7763C22.8563 12.8018 22.8504 12.8247 22.8449 12.8449C22.8247 12.8504 22.8018 12.8563 22.7763 12.8623C22.4739 12.9339 21.9336 13 21 13C20.0664 13 19.5261 12.9339 19.2237 12.8623C19.1982 12.8563 19.1753 12.8504 19.1551 12.8449C19.1496 12.8247 19.1437 12.8018 19.1377 12.7763C19.0661 12.4739 19 11.9336 19 11C19 10.0664 19.0661 9.52605 19.1377 9.22373C19.1437 9.19815 19.1496 9.17535 19.1551 9.15511C19.1753 9.14958 19.1982 9.14374 19.2237 9.13768C19.5261 9.06609 20.0664 9 21 9C21.9336 9 22.4739 9.06609 22.7763 9.13768C22.8018 9.14374 22.8247 9.14958 22.8449 9.15511C22.8504 9.17535 22.8563 9.19815 22.8623 9.22373C22.9339 9.52605 23 10.0664 23 11ZM22.7984 12.9808L22.7999 12.978C22.7989 12.98 22.7984 12.9809 22.7984 12.9808ZM22.978 12.7999L22.9808 12.7984C22.9809 12.7984 22.98 12.7989 22.978 12.7999ZM19.0192 12.7984L19.022 12.7999C19.02 12.7989 19.0191 12.7984 19.0192 12.7984ZM19.2001 12.978L19.2016 12.9808C19.2016 12.9809 19.2011 12.98 19.2001 12.978ZM19.2016 9.01916L19.2001 9.02199C19.2011 9.02004 19.2016 9.01913 19.2016 9.01916ZM19.022 9.20013L19.0192 9.20158C19.0191 9.20156 19.02 9.20106 19.022 9.20013ZM22.978 9.20013L22.9808 9.20158C22.9809 9.20156 22.9803 9.20125 22.9791 9.20065L22.978 9.20013ZM22.7999 9.02199L22.7984 9.01916C22.7984 9.01913 22.7989 9.02004 22.7999 9.02199ZM24.293 14.293C24.725 13.861 25 13.007 25 11C25 8.993 24.725 8.139 24.293 7.707C23.861 7.275 23.007 7 21 7C18.993 7 18.139 7.275 17.707 7.707C17.275 8.139 17 8.993 17 11C17 13.007 17.275 13.861 17.707 14.293C18.139 14.725 18.993 15 21 15C23.007 15 23.861 14.725 24.293 14.293ZM12.8623 22.7763C12.9339 22.4739 13 21.9336 13 21C13 20.0664 12.9339 19.5261 12.8623 19.2237C12.8563 19.1982 12.8504 19.1753 12.8449 19.1551C12.8247 19.1496 12.8018 19.1437 12.7763 19.1377C12.4739 19.0661 11.9336 19 11 19C10.0664 19 9.52605 19.0661 9.22373 19.1377C9.19815 19.1437 9.17535 19.1496 9.15511 19.1551C9.14958 19.1753 9.14374 19.1982 9.13768 19.2237C9.06609 19.5261 9 20.0664 9 21C9 21.9336 9.06609 22.4739 9.13768 22.7763C9.14374 22.8018 9.14958 22.8247 9.15511 22.8449C9.17535 22.8504 9.19815 22.8563 9.22373 22.8623C9.52605 22.9339 10.0664 23 11 23C11.9336 23 12.4739 22.9339 12.7763 22.8623C12.8018 22.8563 12.8247 22.8504 12.8449 22.8449C12.8504 22.8247 12.8563 22.8018 12.8623 22.7763ZM12.7984 22.9808L12.7999 22.978C12.7989 22.98 12.7984 22.9809 12.7984 22.9808ZM12.978 22.7999L12.9808 22.7984C12.9809 22.7984 12.98 22.7989 12.978 22.7999ZM9.01916 22.7984L9.02199 22.7999C9.02004 22.7989 9.01913 22.7984 9.01916 22.7984ZM9.20013 22.978L9.20158 22.9808C9.20156 22.9809 9.20106 22.98 9.20013 22.978ZM9.20158 19.0192L9.20013 19.022C9.20106 19.02 9.20156 19.0191 9.20158 19.0192ZM9.02199 19.2001L9.01916 19.2016C9.01913 19.2016 9.02004 19.2011 9.02199 19.2001ZM12.9808 19.2016L12.978 19.2001L12.9797 19.2009C12.9805 19.2013 12.9809 19.2016 12.9808 19.2016ZM12.7999 19.022L12.7984 19.0192C12.7984 19.0191 12.7989 19.02 12.7999 19.022ZM15 21C15 23.007 14.725 23.861 14.293 24.293C13.861 24.725 13.007 25 11 25C8.993 25 8.139 24.725 7.707 24.293C7.275 23.861 7 23.007 7 21C7 18.993 7.275 18.139 7.707 17.707C8.139 17.275 8.993 17 11 17C13.007 17 13.861 17.275 14.293 17.707C14.725 18.139 15 18.993 15 21ZM18.1713 18.1718C17.7813 18.5618 17.7813 19.1948 18.1713 19.5858L19.5853 20.9998L18.1723 22.4138C17.7813 22.8038 17.7813 23.4378 18.1713 23.8278C18.5623 24.2188 19.1953 24.2178 19.5863 23.8278L20.9993 22.4138L22.4143 23.8278C22.8043 24.2188 23.4373 24.2188 23.8283 23.8278C24.2183 23.4378 24.2183 22.8048 23.8283 22.4138L22.4143 20.9998L23.8273 19.5858C24.2183 19.1958 24.2183 18.5618 23.8283 18.1718C23.4373 17.7808 22.8043 17.7818 22.4133 18.1718L20.9993 19.5858L19.5853 18.1718C19.1953 17.7808 18.5623 17.7808 18.1713 18.1718Z"/>
</svg>
