<svg width="32" height="32" viewBox="0 0 32 32"  xmlns="http://www.w3.org/2000/svg" fill="currentColor">
<path d="M13.5 9C12.948 9 12.5 9.448 12.5 10C12.5 10.552 12.948 11 13.5 11H22.5C23.052 11 23.5 10.552 23.5 10C23.5 9.448 23.052 9 22.5 9H13.5Z" />
<path d="M13.5 14C12.948 14 12.5 14.448 12.5 15C12.5 15.552 12.948 16 13.5 16H22.5C23.052 16 23.5 15.552 23.5 15C23.5 14.448 23.052 14 22.5 14H13.5Z" />
<path d="M13.5 19C12.948 19 12.5 19.448 12.5 20C12.5 20.552 12.948 21 13.5 21H19.5C20.052 21 20.5 20.552 20.5 20C20.5 19.448 20.052 19 19.5 19H13.5Z" />
<path fill-rule="evenodd" clip-rule="evenodd" d="M5 7C5 5.34315 6.34315 4 8 4H23C25.2091 4 27 5.79086 27 8L27 26C27 26.4045 26.7564 26.7691 26.3827 26.9239C26.009 27.0787 25.5789 26.9931 25.2929 26.7071L24 25.4142L22.7071 26.7071C22.3166 27.0977 21.6834 27.0977 21.2929 26.7071L20 25.4142L18.7071 26.7071C18.3166 27.0977 17.6834 27.0977 17.2929 26.7071L16 25.4142L14.7071 26.7071C14.3166 27.0977 13.6834 27.0977 13.2929 26.7071L12 25.4142L10.7071 26.7071C10.4211 26.9931 9.991 27.0787 9.61732 26.9239C9.24365 26.7691 9 26.4045 9 26L9 11H5V7ZM25 8L25 23.5858L24.7071 23.2929C24.3166 22.9024 23.6834 22.9024 23.2929 23.2929L22 24.5858L20.7071 23.2929C20.3166 22.9024 19.6834 22.9024 19.2929 23.2929L18 24.5858L16.7071 23.2929C16.3166 22.9024 15.6834 22.9024 15.2929 23.2929L14 24.5858L12.7071 23.2929C12.3166 22.9024 11.6834 22.9024 11.2929 23.2929L11 23.5858L11 7C11 6.64936 10.9398 6.31278 10.8293 6H23C24.1046 6 25 6.89543 25 8ZM9 7C9 6.44772 8.55228 6 8 6C7.44772 6 7 6.44772 7 7V9H9V7Z" />
</svg>
