<svg width="32" height="32" viewBox="0 0 32 32" fill="currentColor" xmlns="http://www.w3.org/2000/svg">
<path fill-rule="evenodd" clip-rule="evenodd" d="M7 11C7.5523 11 8 10.5523 8 10C8 9.4477 7.5523 9 7 9C6.4477 9 6 9.4477 6 10C6 10.5523 6.4477 11 7 11ZM9.84238 10.9622C9.94458 10.6602 10 10.3366 10 10C10 9.64936 9.93985 9.31278 9.82931 9C9.41749 7.83479 8.30626 7 7 7C5.3431 7 4 8.3431 4 10C4 11.6569 5.3431 13 7 13C8.30626 13 9.41749 12.1652 9.82931 11L9.84238 10.9622ZM12 19.0146C12 21.0146 12.75 21.0146 16 21.0146V21H21.126C21.0438 21.3196 21 21.6547 21 22C21 22.3453 21.0438 22.6804 21.126 23H16V23.0152C15.6578 23.0149 15.3155 23.0086 15 22.9956C11.275 22.8466 10 21.7806 10 19.0146C10 16.0146 10.857 15.0146 16 15.0146C20 15.0146 20 14.5146 20 13.0166V13.0126C20 11.5146 20 11.0146 16 11.0146V11H10.874C10.9562 10.6804 11 10.3453 11 10C11 9.6547 10.9562 9.31962 10.874 9H16V9.01387C16.3423 9.01387 16.6845 9.01912 17 9.02962C20.725 9.15462 22 10.0646 22 13.0146C22 16.2146 21.143 17.0146 16 17.0146C12.606 17.0146 12 17.0146 12 19.0146ZM25 23C25.5523 23 26 22.5523 26 22C26 21.4477 25.5523 21 25 21C24.4477 21 24 21.4477 24 22C24 22.5523 24.4477 23 25 23ZM25 25C26.6569 25 28 23.6569 28 22C28 20.3431 26.6569 19 25 19C23.6937 19 22.5825 19.8348 22.1707 21C22.1663 21.0126 22.1619 21.0252 22.1576 21.0378C22.0554 21.3398 22 21.6634 22 22C22 22.3506 22.0602 22.6872 22.1707 23C22.5825 24.1652 23.6937 25 25 25Z"/>
</svg>
