<svg width="32" height="32" viewBox="0 0 32 32" fill="currentColor" xmlns="http://www.w3.org/2000/svg">
<path fill-rule="evenodd" clip-rule="evenodd" d="M12.8623 12.7763C12.9339 12.4739 13 11.9336 13 11C13 10.0664 12.9339 9.52605 12.8623 9.22373C12.8563 9.19815 12.8504 9.17535 12.8449 9.15511C12.8246 9.14958 12.8018 9.14374 12.7763 9.13768C12.4739 9.06609 11.9336 9 11 9C10.0664 9 9.52605 9.06609 9.22372 9.13768C9.19815 9.14374 9.17534 9.14958 9.1551 9.15511C9.14957 9.17535 9.14373 9.19815 9.13767 9.22373C9.06608 9.52605 8.99999 10.0664 8.99999 11C8.99999 11.9336 9.06608 12.4739 9.13767 12.7763C9.14373 12.8018 9.14957 12.8247 9.1551 12.8449C9.17534 12.8504 9.19815 12.8563 9.22372 12.8623C9.52605 12.9339 10.0664 13 11 13C11.9336 13 12.4739 12.9339 12.7763 12.8623C12.8018 12.8563 12.8246 12.8504 12.8449 12.8449C12.8504 12.8247 12.8563 12.8018 12.8623 12.7763ZM15 11C15 13.007 14.725 13.861 14.293 14.293C13.861 14.725 13.007 15 11 15C8.99299 15 8.13899 14.725 7.70699 14.293C7.27499 13.861 6.99999 13.007 6.99999 11C6.99999 8.993 7.27499 8.139 7.70699 7.707C8.13899 7.275 8.99299 7 11 7C13.007 7 13.861 7.275 14.293 7.707C14.725 8.139 15 8.993 15 11Z"/>
<path fill-rule="evenodd" clip-rule="evenodd" d="M13.5729 20.9392C13.4097 20.6748 13.0744 20.2459 12.4142 19.5858C11.754 18.9256 11.3252 18.5903 11.0608 18.4271C11.0385 18.4133 11.0182 18.4013 11 18.3909C10.9818 18.4013 10.9615 18.4133 10.9391 18.4271C10.6747 18.5903 10.2459 18.9256 9.58578 19.5858C8.92562 20.2459 8.59027 20.6748 8.42712 20.9392C8.41332 20.9615 8.40132 20.9818 8.39092 21C8.40132 21.0182 8.41332 21.0385 8.42712 21.0608C8.59027 21.3252 8.92562 21.7541 9.58578 22.4142C10.2459 23.0744 10.6747 23.4097 10.9391 23.5729C10.9615 23.5867 10.9818 23.5987 11 23.6091C11.0182 23.5987 11.0385 23.5867 11.0608 23.5729C11.3252 23.4097 11.754 23.0744 12.4142 22.4142C13.0744 21.7541 13.4097 21.3252 13.5729 21.0608C13.5867 21.0385 13.5987 21.0182 13.6091 21C13.5987 20.9818 13.5867 20.9615 13.5729 20.9392ZM13.8284 18.1716C15.2476 19.5907 15.657 20.3891 15.657 21C15.657 21.6109 15.2476 22.4093 13.8284 23.8284C12.4093 25.2476 11.6109 25.657 11 25.657C10.3891 25.657 9.59073 25.2476 8.17157 23.8284C6.7524 22.4093 6.34299 21.6109 6.34299 21C6.34299 20.3891 6.7524 19.5907 8.17157 18.1716C9.59073 16.7524 10.3891 16.343 11 16.343C11.6109 16.343 12.4093 16.7524 13.8284 18.1716Z"/>
<path fill-rule="evenodd" clip-rule="evenodd" d="M22.8623 22.7763C22.9339 22.4739 23 21.9336 23 21C23 20.0664 22.9339 19.5261 22.8623 19.2237C22.8563 19.1982 22.8504 19.1753 22.8449 19.1551C22.8246 19.1496 22.8018 19.1437 22.7763 19.1377C22.4739 19.0661 21.9336 19 21 19C20.0664 19 19.526 19.0661 19.2237 19.1377C19.1981 19.1437 19.1753 19.1496 19.1551 19.1551C19.1496 19.1753 19.1437 19.1982 19.1377 19.2237C19.0661 19.5261 19 20.0664 19 21C19 21.9336 19.0661 22.4739 19.1377 22.7763C19.1437 22.8018 19.1496 22.8247 19.1551 22.8449C19.1753 22.8504 19.1981 22.8563 19.2237 22.8623C19.526 22.9339 20.0664 23 21 23C21.9336 23 22.4739 22.9339 22.7763 22.8623C22.8018 22.8563 22.8246 22.8504 22.8449 22.8449C22.8504 22.8247 22.8563 22.8018 22.8623 22.7763ZM25 21C25 23.007 24.725 23.861 24.293 24.293C23.861 24.725 23.007 25 21 25C18.993 25 18.139 24.725 17.707 24.293C17.275 23.861 17 23.007 17 21C17 18.993 17.275 18.139 17.707 17.707C18.139 17.275 18.993 17 21 17C23.007 17 23.861 17.275 24.293 17.707C24.725 18.139 25 18.993 25 21Z"/>
<path fill-rule="evenodd" clip-rule="evenodd" d="M19.9995 7.99985C20.0002 7.4476 20.4478 7 20.9994 7C21.5523 7 21.9999 7.4476 21.9992 7.99985V9.99955L23.9989 9.99955C24.5512 10.0003 24.9995 10.4471 24.9995 11.0001C24.9995 11.5516 24.5512 12 23.9989 11.9992L21.9999 12V13.9996C21.9992 14.5519 21.5516 14.9995 21.0001 14.9995C20.4471 14.9995 19.9995 14.5519 20.0002 13.9996L19.9995 11.9992L18.0005 12C17.4483 11.9992 17 11.5524 17 10.9994C17 10.4479 17.4483 9.99955 18.0005 10.0003L19.9995 9.99955V7.99985Z"/>
</svg>
