<svg width="32" height="32" viewBox="0 0 32 32" fill="currentColor" xmlns="http://www.w3.org/2000/svg">
<path fill-rule="evenodd" clip-rule="evenodd" d="M10.44 7.83756V13.1246L17.494 14.6196C18.122 14.7526 18.46 15.2846 18.483 15.7836C18.483 15.7926 18.484 15.8056 18.484 15.8176C18.484 15.8216 18.484 15.8256 18.484 15.8296C18.484 15.8346 18.484 15.8386 18.484 15.8426C18.484 15.8546 18.483 15.8676 18.483 15.8766C18.46 16.3746 18.122 16.9076 17.494 17.0406L10.44 18.5356V24.1626C10.46 24.1636 10.489 24.1606 10.53 24.1456C14.916 22.6216 25.94 16.3376 25.94 15.8376C25.94 15.3376 14.865 9.36456 10.53 7.85356C10.489 7.83956 10.46 7.83656 10.44 7.83756ZM27.995 15.8296V15.8186V15.8156C27.984 15.1176 27.605 14.5266 27.07 14.1306C23.439 11.4426 15.558 7.48856 11.188 5.96556C10.564 5.74756 9.888 5.80756 9.345 6.15056C8.791 6.49956 8.44 7.10856 8.44 7.81756V13.5296C8.44 14.2376 8.936 14.8496 9.629 14.9966L13.56 15.8296L9.629 16.6636C8.936 16.8096 8.44 17.4216 8.44 18.1306V24.1826C8.44 24.8916 8.791 25.4996 9.345 25.8496C9.888 26.1926 10.564 26.2526 11.188 26.0346C15.559 24.5076 23.478 20.1846 27.069 17.5296C27.605 17.1326 27.984 16.5426 27.994 15.8446V15.8416L27.995 15.8296Z"/>
<path fill-rule="evenodd" clip-rule="evenodd" d="M0 12C0 11.448 0.448 11 1 11H3C3.552 11 4 11.448 4 12C4 12.552 3.552 13 3 13H1C0.448 13 0 12.552 0 12Z"/>
<path fill-rule="evenodd" clip-rule="evenodd" d="M0 20C0 19.448 0.448 19 1 19H3C3.552 19 4 19.448 4 20C4 20.552 3.552 21 3 21H1C0.448 21 0 20.552 0 20Z"/>
<path fill-rule="evenodd" clip-rule="evenodd" d="M0 16C0 15.448 0.448 15 1 15H5C5.552 15 6 15.448 6 16C6 16.552 5.552 17 5 17H1C0.448 17 0 16.552 0 16Z"/>
</svg>
