<svg width="32" height="32" viewBox="0 0 32 32" fill="currentColor" xmlns="http://www.w3.org/2000/svg">
<path d="M20.9255 18.418C21.1335 18.575 21.4145 18.75 21.7505 18.75C22.0855 18.75 22.3675 18.575 22.5755 18.418L22.5765 18.417C23.6795 17.568 24.5385 16.439 25.3745 15.34L25.3815 15.33C25.5215 15.147 25.6605 14.965 25.7995 14.784C26.1035 14.391 26.0585 13.807 25.6865 13.474C25.3045 13.131 24.7335 13.191 24.4205 13.595C24.2815 13.775 24.1435 13.957 24.0055 14.138C23.3005 15.063 22.6015 15.98 21.7505 16.714C20.9115 15.989 20.1975 15.055 19.4945 14.135C19.3555 13.954 19.2175 13.773 19.0795 13.595C18.7665 13.19 18.1955 13.131 17.8135 13.474C17.4425 13.807 17.3955 14.39 17.7005 14.784L17.7015 14.785L17.8425 14.968L17.9025 15.047C17.9705 15.136 18.0395 15.225 18.1075 15.315L18.1099 15.3181C18.9472 16.4152 19.8376 17.5818 20.9235 18.417L20.9255 18.418Z"/>
<path d="M9.42554 13.582C9.63354 13.425 9.91454 13.25 10.2505 13.25C10.5855 13.25 10.8675 13.425 11.0755 13.582L11.0765 13.583C12.1795 14.432 13.0385 15.561 13.8745 16.66C14.0165 16.847 14.1575 17.032 14.2995 17.216C14.6035 17.609 14.5585 18.193 14.1865 18.526C13.8045 18.869 13.2335 18.809 12.9205 18.405C12.7815 18.225 12.6435 18.044 12.5065 17.864L12.5055 17.862C11.8005 16.937 11.1015 16.02 10.2505 15.286C9.41154 16.011 8.69754 16.945 7.99454 17.865C7.85554 18.046 7.71754 18.227 7.57954 18.405C7.26654 18.81 6.69554 18.869 6.31354 18.526C5.94254 18.193 5.89554 17.61 6.20054 17.216L6.20154 17.215C6.33554 17.041 6.47154 16.864 6.60754 16.685L6.60991 16.6819C7.44722 15.5848 8.33757 14.4182 9.42354 13.583L9.42554 13.582Z"/>
</svg>
