<svg width="32" height="32" viewBox="0 0 32 32" fill="currentColor" xmlns="http://www.w3.org/2000/svg">
<path d="M15.4255 8.33195C15.6335 8.17495 15.9145 7.99995 16.2505 7.99995C16.5855 7.99995 16.8675 8.17495 17.0755 8.33195L17.0765 8.33295C18.1795 9.18195 19.0385 10.311 19.8745 11.41C20.0165 11.597 20.1575 11.782 20.2995 11.966C20.6035 12.359 20.5585 12.943 20.1865 13.276C19.8045 13.619 19.2335 13.559 18.9205 13.155C18.7815 12.975 18.6435 12.794 18.5065 12.614L18.5055 12.612C17.8005 11.687 17.1015 10.77 16.2505 10.036C15.4115 10.761 14.6975 11.695 13.9945 12.615C13.8555 12.796 13.7175 12.977 13.5795 13.155C13.2665 13.56 12.6955 13.619 12.3135 13.276C11.9425 12.943 11.8955 12.36 12.2005 11.966L12.2015 11.965C12.3355 11.791 12.4715 11.614 12.6075 11.435L12.6099 11.4318C13.4472 10.3348 14.3376 9.16816 15.4235 8.33295L15.4255 8.33195Z"/>
<path d="M15.4255 23.668C15.6335 23.825 15.9145 24 16.2505 24C16.5855 24 16.8675 23.825 17.0755 23.668L17.0765 23.667C18.1795 22.818 19.0385 21.689 19.8745 20.59L19.8815 20.58C20.0215 20.397 20.1605 20.215 20.2995 20.034C20.6035 19.641 20.5585 19.057 20.1865 18.724C19.8045 18.381 19.2335 18.441 18.9205 18.845C18.7815 19.025 18.6435 19.207 18.5055 19.388C17.8005 20.313 17.1015 21.23 16.2505 21.964C15.4115 21.239 14.6975 20.305 13.9945 19.385C13.8555 19.204 13.7175 19.023 13.5795 18.845C13.2665 18.44 12.6955 18.381 12.3135 18.724C11.9425 19.057 11.8955 19.64 12.2005 20.034L12.2015 20.035L12.3425 20.218L12.4025 20.297C12.4705 20.386 12.5395 20.475 12.6075 20.565L12.6099 20.5681C13.4472 21.6652 14.3376 22.8318 15.4235 23.667L15.4255 23.668Z"/>
</svg>
