<svg fill-rule="evenodd" clip-rule="evenodd" stroke-linejoin="round" stroke-miterlimit="1.414" xmlns="http://www.w3.org/2000/svg" aria-label="star-fill" viewBox="0 0 32 32" preserveAspectRatio="xMidYMid meet" fill="currentColor" width="32" height="32" title="star-fill"><path d="M14.6549 6.72548C15.2051 5.61061 16.7949 5.61061 17.3451 6.72548L19.1777 10.4387C19.3962 10.8814 19.8185 11.1883 20.3071 11.2593L24.4049 11.8547C25.6353 12.0335 26.1265 13.5455 25.2363 14.4133L22.271 17.3037C21.9175 17.6483 21.7562 18.1448 21.8396 18.6313L22.5396 22.7126C22.7498 23.938 21.4637 24.8724 20.3632 24.2939L16.698 22.367C16.261 22.1372 15.739 22.1372 15.302 22.367L11.6368 24.2939C10.5363 24.8724 9.2502 23.938 9.46036 22.7126L10.1604 18.6314C10.2438 18.1448 10.0825 17.6483 9.72896 17.3037L6.76375 14.4133C5.87347 13.5455 6.36474 12.0335 7.59507 11.8547L11.6929 11.2593C12.1815 11.1883 12.6038 10.8814 12.8223 10.4387L14.6549 6.72548Z"></path></svg>
