<svg width="32" height="32" viewBox="0 0 32 32" fill="currentColor" xmlns="http://www.w3.org/2000/svg">
<path fill-rule="evenodd" clip-rule="evenodd" d="M22 5H10C7.79086 5 6 6.79086 6 9C6 11.2091 7.79086 13 10 13H22C24.2091 13 26 11.2091 26 9C26 6.79086 24.2091 5 22 5ZM10 3C6.68629 3 4 5.68629 4 9C4 12.3137 6.68629 15 10 15H22C25.3137 15 28 12.3137 28 9C28 5.68629 25.3137 3 22 3H10Z"/>
<circle cx="10" cy="9" r="3"/>
<path fill-rule="evenodd" clip-rule="evenodd" d="M22 19H10C7.79086 19 6 20.7909 6 23C6 25.2091 7.79086 27 10 27H22C24.2091 27 26 25.2091 26 23C26 20.7909 24.2091 19 22 19ZM10 17C6.68629 17 4 19.6863 4 23C4 26.3137 6.68629 29 10 29H22C25.3137 29 28 26.3137 28 23C28 19.6863 25.3137 17 22 17H10Z"/>
<circle cx="22" cy="23" r="3"/>
</svg>
