<svg width="32" height="32" viewBox="0 0 32 32" fill="currentColor" xmlns="http://www.w3.org/2000/svg">
<path d="M7.45371 6.49962C6.90146 6.50033 6.45315 6.05202 6.45386 5.49977L6.45386 5.00056C6.45386 4.4476 6.90146 4 7.45371 4.00071L22.8495 4C23.6967 4 24.536 4.16051 25.3237 4.47164C26.0336 4.75307 26.0315 5.75928 25.3195 6.03717L25.3131 6.0393C24.5325 6.34335 23.7016 6.49962 22.863 6.49962L7.45371 6.49962Z"/>
<path fill-rule="evenodd" clip-rule="evenodd" d="M16 26.5C5 26.5 4 25.667 4 16.5C4 7.333 5 6.5 16 6.5C27 6.5 28 7.333 28 16.5C28 25.667 27 26.5 16 26.5Z"/>
</svg>
