<svg width="32" height="32" viewBox="0 0 32 32" fill="currentColor" xmlns="http://www.w3.org/2000/svg">
<path fill-rule="evenodd" clip-rule="evenodd" d="M6.291 21.548C6.05 20.336 6 18.756 6 16.5C6 14.244 6.05 12.664 6.291 11.452C6.507 10.342 6.824 9.875 7.155 9.599C7.539 9.279 8.249 8.958 9.752 8.755C11.283 8.546 13.274 8.5 16 8.5C18.725 8.5 20.717 8.546 22.248 8.755C23.751 8.958 24.461 9.279 24.845 9.599C25.176 9.875 25.493 10.342 25.709 11.452C25.95 12.664 26 14.244 26 16.5C26 18.756 25.95 20.336 25.709 21.548C25.493 22.658 25.176 23.125 24.845 23.401C24.461 23.721 23.751 24.042 22.248 24.244C20.717 24.454 18.725 24.5 16 24.5C13.274 24.5 11.283 24.454 9.752 24.244C8.249 24.042 7.539 23.721 7.155 23.401C6.824 23.125 6.507 22.658 6.291 21.548ZM16 26.5C5 26.5 4 25.667 4 16.5C4 7.333 5 6.5 16 6.5C27 6.5 28 7.333 28 16.5C28 25.667 27 26.5 16 26.5Z"/>
<path d="M7.45371 6.49962C6.90146 6.50033 6.45315 6.05202 6.45386 5.49977L6.45386 5.00056C6.45386 4.4476 6.90146 4 7.45371 4.00071L22.8495 4C23.6967 4 24.536 4.16051 25.3237 4.47164C26.0336 4.75307 26.0315 5.75928 25.3195 6.03717L25.3131 6.0393C24.5325 6.34335 23.7016 6.49962 22.863 6.49962L7.45371 6.49962Z"/>
</svg>
