<svg fill-rule="evenodd" clip-rule="evenodd" stroke-linejoin="round" stroke-miterlimit="1.414" xmlns="http://www.w3.org/2000/svg" aria-label="transfers-horizontal" viewBox="0 0 32 32" preserveAspectRatio="xMidYMid meet" fill="currentColor" width="32" height="32" title="transfers-horizontal"><path d="M20.3077 16.2095C19.9542 16.6338 20.0114 17.2644 20.4357 17.6179L20.6805 17.8227C21.7606 18.7261 22.4455 19.299 23.2488 20.0976L13.558 20.101C13.0057 20.101 12.558 20.5487 12.558 21.101C12.558 21.6533 13.0057 22.101 13.558 22.101L23.2524 22.0997C22.4351 22.9143 21.7456 23.4892 20.5977 24.4464L20.4357 24.5815C20.0114 24.9351 19.9541 25.5656 20.3077 25.9899C20.6612 26.4142 21.2497 26.4128 21.7165 26.1176C23.3259 25.0997 24.3259 24.0997 25.9173 22.1532C26.1355 21.842 26.3259 21.4899 26.3259 21.0997C26.3259 20.7096 26.1355 20.3575 25.9173 20.0462C24.3258 18.0997 23.3259 17.0997 21.7173 16.0826L21.7161 16.0815C21.2918 15.7279 20.6613 15.7853 20.3077 16.2095Z"></path><path d="M11.6923 6.0342C12.0458 6.45847 11.9886 7.08906 11.5643 7.44262L11.3195 7.6474C10.2394 8.55078 9.5545 9.12367 8.75122 9.92224L18.442 9.92567C18.9943 9.92567 19.442 10.3734 19.442 10.9257C19.442 11.478 18.9943 11.9257 18.442 11.9257L8.74763 11.9244C9.56493 12.7389 10.2544 13.3139 11.4023 14.271L11.5643 14.4062C11.9886 14.7598 12.0459 15.3903 11.6923 15.8146C11.3388 16.2389 10.7503 16.2375 10.2835 15.9423C8.67409 14.9244 7.6741 13.9244 6.08275 11.9779C5.86454 11.6666 5.67412 11.3146 5.6741 10.9244C5.67409 10.5342 5.86453 10.1822 6.08272 9.87091C7.67415 7.92437 8.67414 6.92438 10.2827 5.90728L10.2839 5.90615C10.7082 5.55259 11.3387 5.60994 11.6923 6.0342Z"></path></svg>
