<svg width="32" height="32" viewBox="0 0 32 32" fill="currentColor" xmlns="http://www.w3.org/2000/svg">
<path fill-rule="evenodd" clip-rule="evenodd" d="M6.70533 19.6863C6.94679 19.1719 7.16631 18.639 7.38413 18.1102C7.41062 18.0463 7.43702 17.9824 7.46338 17.9187C7.52401 17.772 7.58443 17.6259 7.64522 17.4811C7.84274 17.0089 8.37901 16.8042 8.83677 17.0366C9.28131 17.2622 9.4776 17.8132 9.28497 18.2727L9.28426 18.2739C9.19986 18.4767 9.11431 18.6829 9.02927 18.891L9.02779 18.8946C8.50296 20.171 7.94489 21.5283 7.11208 22.6161L7.11041 22.6176C6.95013 22.8231 6.724 23.0648 6.39945 23.1518C6.07586 23.2385 5.75818 23.1425 5.51663 23.0446L5.51541 23.0439C4.23025 22.5093 3.10832 21.6411 2.01636 20.796C1.8308 20.6521 1.64672 20.5099 1.46194 20.3689C1.06658 20.068 0.958897 19.4922 1.23204 19.0743C1.51224 18.6441 2.07932 18.5543 2.48621 18.8635C2.66706 19.0014 2.84721 19.1405 3.02613 19.2789L3.02761 19.2806C3.65952 19.7688 4.28772 20.254 4.94695 20.6684C2.60417 15.1659 4.68469 8.65442 9.99487 5.58858C14.3176 3.09286 19.5476 3.59227 23.282 6.4429L22.0675 8.03257C18.9555 5.65704 14.5971 5.24087 10.9949 7.32064C6.63416 9.8383 4.88702 15.1443 6.70533 19.6863ZM22.0675 8.03257C22.5056 8.36878 23.1334 8.28613 23.4696 7.84797C23.8058 7.40982 23.7231 6.78207 23.285 6.44586L22.0675 8.03257ZM9.92229 23.9292C13.0342 26.3047 17.3926 26.7209 20.9949 24.6411C25.3732 22.1133 27.1168 16.7746 25.2622 12.2206C25.0033 12.7637 24.7704 13.329 24.5394 13.8899L24.4602 14.0811L24.46 14.0817C24.3994 14.2282 24.339 14.3743 24.2783 14.5189C24.0808 14.9911 23.5445 15.1959 23.0867 14.9634C22.6422 14.7378 22.4459 14.1868 22.6385 13.7273L22.6392 13.7261C22.7236 13.5233 22.8092 13.3172 22.8942 13.109L22.8957 13.1054C23.4206 11.829 23.9786 10.4717 24.8114 9.38391L24.8131 9.38243C24.9734 9.17695 25.1995 8.93518 25.5241 8.84822C25.8476 8.76151 26.1653 8.85756 26.4069 8.95538L26.4081 8.95609C27.6933 9.49068 28.8152 10.3589 29.9072 11.2041C30.0927 11.3479 30.2768 11.4901 30.4616 11.6311C30.8569 11.932 30.9646 12.5078 30.6915 12.9257C30.4113 13.3559 29.8442 13.4457 29.4373 13.1365C29.2564 12.9986 29.0763 12.8595 28.8974 12.7211L28.8959 12.7194C28.3 12.2591 27.7073 11.8013 27.0889 11.4031C29.3578 16.8821 27.2698 23.3277 21.9949 26.3732C17.673 28.8684 12.4442 28.3697 8.71004 25.5206L8.70984 25.5209C8.27168 25.1847 8.18904 24.5569 8.52524 24.1188C8.86003 23.6825 9.48387 23.5987 9.92176 23.9299L9.92229 23.9292Z"/>
<path fill-rule="evenodd" clip-rule="evenodd" d="M16 7C15.448 7 15 7.448 15 8V10.019L17 10.015V8C17 7.448 16.552 7 16 7Z"/>
<path fill-rule="evenodd" clip-rule="evenodd" d="M17 24V21.985H15V24C15 24.552 15.448 25 16 25C16.552 25 17 24.552 17 24Z"/>
<path fill-rule="evenodd" clip-rule="evenodd" d="M21.909 12.004C22.016 12.546 21.551 12.999 20.999 12.999C20.447 13 20.057 12.507 19.749 12.049C19.347 11.451 19.25 11 16 11C12.75 11 12 11 12 13C12 15 12.606 15 16 15C21.143 15 22 15.8 22 19C22 21.95 20.725 22.86 17 22.985C16.369 23.006 15.631 23.006 15 22.985C12.128 22.889 10.441 22.2 10.076 19.997C9.985 19.452 10.448 19 11 19C11.552 19 11.925 19.463 12.075 19.995C12.283 20.731 13.065 21 16 21C20 21 20 20.5 20 19.002V18.998C20 17.5 20 17 16 17C10.857 17 10 16 10 13C10 10.234 11.275 9.16797 15 9.01897C15.631 8.99297 16.369 8.99397 17 9.01497C20.006 9.01497 21.537 10.111 21.909 12.004Z"/>
<path d="M9.96053 23.7355C13.0725 26.111 17.4309 26.5272 21.0331 24.4474C25.4114 21.9196 27.155 16.5809 25.3005 12.0268C25.0415 12.57 24.8086 13.1353 24.5776 13.6962L24.4985 13.8874C24.4379 14.034 24.3773 14.1805 24.3165 14.3252C24.119 14.7974 23.5827 15.0021 23.125 14.7697C22.6804 14.5441 22.4841 13.9931 22.6768 13.5336L22.6775 13.5324C22.7619 13.3296 22.8474 13.1234 22.9325 12.9153L22.934 12.9117C23.4588 11.6353 24.0169 10.278 24.8497 9.19021L24.8513 9.18872C25.0116 8.98324 25.2378 8.74147 25.5623 8.65451C25.8859 8.5678 26.2036 8.66386 26.4451 8.76167L26.4463 8.76238C27.7315 9.29697 28.8534 10.1652 29.9454 11.0104C30.131 11.1542 30.315 11.2964 30.4998 11.4374C30.8952 11.7383 31.0029 12.3141 30.7297 12.732C30.4495 13.1622 29.8824 13.252 29.4755 12.9428C29.2947 12.8049 29.1145 12.6658 28.9356 12.5274L28.9341 12.5257C28.3382 12.0654 27.7456 11.6076 27.1271 11.2094C29.3961 16.6884 27.3081 23.134 22.0331 26.1795C17.7113 28.6747 12.4825 28.176 8.74828 25.3269C8.31012 24.9907 8.22728 24.3632 8.56349 23.925C8.89827 23.4887 9.52264 23.4043 9.96053 23.7355Z"/>
<path d="M6.74357 19.4926C6.98503 18.9782 7.20456 18.4453 7.42237 17.9164L7.50162 17.725C7.56225 17.5783 7.62267 17.4322 7.68347 17.2874C7.88098 16.8152 8.41725 16.6105 8.87501 16.8429C9.31956 17.0685 9.51585 17.6195 9.32321 18.079L9.32251 18.0802C9.23811 18.283 9.15255 18.4892 9.06752 18.6973L9.06603 18.7009C8.5412 19.9773 7.98313 21.3346 7.15032 22.4224L7.14865 22.4239C6.98837 22.6294 6.76224 22.8711 6.43769 22.9581C6.11411 23.0448 5.79642 22.9487 5.55487 22.8509L5.55365 22.8502C4.2685 22.3156 3.14656 21.4474 2.0546 20.6022C1.86904 20.4584 1.68497 20.3162 1.50018 20.1752C1.10482 19.8743 0.99714 19.2985 1.27028 18.8806C1.55049 18.4504 2.11756 18.3606 2.52446 18.6698C2.70531 18.8077 2.88545 18.9468 3.06437 19.0852L3.06585 19.0869C3.69776 19.575 4.32597 20.0603 4.98519 20.4747C2.64241 14.9722 4.72294 8.46071 10.0331 5.39488C14.3558 2.89915 19.5889 3.40151 23.3232 6.25215C23.7614 6.58836 23.844 7.21611 23.5078 7.65427C23.1716 8.09242 22.5439 8.17507 22.1057 7.83886C18.9938 5.46333 14.6354 5.04716 11.0331 7.12693C6.6724 9.64459 4.92526 14.9506 6.74357 19.4926Z" />
</svg>
