<svg width="9" height="6" viewBox="0 0 18 12" fill="currentColor" xmlns="http://www.w3.org/2000/svg" aria-hidden="true"><path d="M7.35109 10.836C7.76709 11.15 8.32908 11.5 9.00108 11.5C9.67108 11.5 10.2351 11.15 10.6511 10.836L10.6531 10.834C12.8591 9.136 14.5771 6.878 16.2491 4.68L16.2631 4.66C16.5431 4.294 16.8211 3.93 17.0991 3.568C17.7071 2.782 17.6171 1.614 16.8731 0.948C16.1091 0.262 14.9671 0.382001 14.3411 1.19C14.0631 1.55 13.7871 1.914 13.5111 2.276C12.1011 4.126 10.7031 5.96 9.00108 7.428C7.32308 5.978 5.89509 4.11 4.48909 2.27C4.21109 1.908 3.93508 1.546 3.65908 1.19C3.03308 0.38 1.89109 0.262 1.12709 0.948C0.385086 1.614 0.291086 2.78 0.901087 3.568L0.903086 3.57L1.18509 3.936L1.30508 4.094C1.44108 4.272 1.57908 4.45 1.71508 4.63L1.71982 4.63621C3.39444 6.8304 5.17513 9.16358 7.34708 10.834L7.35109 10.836Z"/></svg>
