<svg fill-rule="evenodd" clip-rule="evenodd" stroke-linejoin="round" stroke-miterlimit="1.414" xmlns="http://www.w3.org/2000/svg" aria-label="wand-stars" viewBox="0 0 32 32" preserveAspectRatio="xMidYMid meet" fill="currentColor" width="32" height="32" title="wand-stars"><path d="M22.3896 9.14961L21.943 9.30103C20.8521 9.67097 19.649 9.48042 18.7258 8.79146L18.3479 8.50947L18.3539 8.98092C18.3686 10.1328 17.8156 11.2181 16.8751 11.8833L16.4902 12.1555L16.9404 12.2955C18.0404 12.6374 18.9018 13.4987 19.2437 14.5988L19.3837 15.049L19.6559 14.6641C20.321 13.7235 21.4064 13.1705 22.5582 13.1852L23.0297 13.1913L22.7477 12.8134C22.0588 11.8902 21.8682 10.6871 22.2381 9.59612L24.1322 10.2384C23.9737 10.706 24.0553 11.2216 24.3506 11.6173L25.2385 12.8071C25.982 13.8035 25.2603 15.2199 24.0172 15.2041L22.5327 15.1851C22.039 15.1788 21.5739 15.4158 21.2888 15.8189L20.4316 17.031C19.7138 18.0461 18.1436 17.7974 17.7745 16.6101L17.3338 15.1925C17.1873 14.721 16.8182 14.3519 16.3467 14.2053L14.929 13.7646C13.7418 13.3956 13.4931 11.8254 14.5082 11.1075L15.7203 10.2503C16.1234 9.96529 16.3604 9.50014 16.3541 9.00648L16.3351 7.52201C16.3192 6.27886 17.7357 5.55712 18.7321 6.30068L19.9219 7.18858C20.3176 7.48385 20.8332 7.56552 21.3008 7.40697L22.7067 6.93019C23.8841 6.53093 25.0082 7.65506 24.609 8.83246L24.1322 10.2384L22.2381 9.59612L22.3896 9.14961Z"></path><path d="M6.70711 24.7036C6.31678 24.3133 6.31678 23.6797 6.70711 23.2894L16.6066 13.3899C16.9969 12.9996 17.6305 12.9996 18.0208 13.3899C18.4111 13.7802 18.4111 14.4138 18.0208 14.8041L8.12132 24.7036C7.731 25.0939 7.09743 25.0939 6.70711 24.7036Z"></path><path d="M9.94439 4.61817C10.049 5.09052 10.1678 5.46953 10.3234 5.77924C10.4054 5.94471 10.4995 6.08966 10.607 6.21836C10.6812 6.30816 10.7632 6.39018 10.853 6.46443C10.9817 6.57191 11.1274 6.66525 11.2936 6.7494C11.6026 6.90425 11.9809 7.02234 12.4532 7.12699C12.5062 7.13901 12.5593 7.15103 12.6137 7.16164C12.997 7.24083 12.9977 7.82985 12.6158 7.90764C12.5607 7.91895 12.5069 7.93026 12.4546 7.94158C11.9823 8.04481 11.6033 8.16219 11.295 8.31634C11.1295 8.39837 10.9853 8.49171 10.8573 8.59848C10.7682 8.67202 10.6869 8.75334 10.6126 8.84314C10.5058 8.97112 10.4125 9.11537 10.3305 9.28084C10.1763 9.58914 10.0589 9.96814 9.95571 10.4405C9.94439 10.4928 9.93308 10.5466 9.92247 10.601C9.84398 10.9836 9.25567 10.9821 9.17647 10.5989C9.16445 10.5444 9.15385 10.4914 9.14183 10.4384C9.03788 9.97239 8.92121 9.59691 8.76777 9.29074C8.68574 9.12669 8.59382 8.98244 8.48775 8.85516C8.40856 8.76041 8.323 8.67485 8.22754 8.59636C8.09884 8.49171 7.95389 8.40049 7.78842 8.31988C7.48154 8.16997 7.10536 8.05684 6.63725 7.95784C6.58493 7.94653 6.53119 7.93663 6.47674 7.92602C6.09278 7.85036 6.0843 7.26205 6.46613 7.18002C6.52058 7.168 6.57432 7.15669 6.62665 7.14396C7.10395 7.03436 7.48507 6.91203 7.79549 6.75293C7.96096 6.66808 8.10591 6.57262 8.23461 6.46231C8.31805 6.3916 8.39441 6.31523 8.46442 6.23109C8.57331 6.10098 8.66806 5.95531 8.7508 5.78914C8.90707 5.47731 9.02586 5.09406 9.12981 4.61676C9.14112 4.56443 9.15243 4.51069 9.16375 4.45554C9.24153 4.0737 9.83055 4.07441 9.90974 4.45766C9.91611 4.48948 9.92247 4.51989 9.92884 4.55029C9.93449 4.57292 9.93874 4.59555 9.94439 4.61817V4.61817Z"></path><path d="M25.9112 20.4356C25.7552 20.6804 25.6448 20.8916 25.5794 21.089C25.544 21.194 25.5224 21.2954 25.5134 21.3956C25.5068 21.4652 25.5068 21.5348 25.5134 21.6044C25.5224 21.7046 25.5446 21.806 25.5794 21.9122C25.6448 22.109 25.7552 22.3196 25.9112 22.5644C25.9286 22.592 25.946 22.6196 25.9646 22.6472C26.0936 22.8434 25.844 23.0936 25.649 22.9646C25.6208 22.946 25.5932 22.928 25.5662 22.9106C25.322 22.754 25.1114 22.643 24.9152 22.5776C24.8103 22.5422 24.7095 22.5206 24.6099 22.5116C24.5409 22.505 24.4719 22.505 24.4023 22.5116C24.3027 22.5206 24.2019 22.5422 24.0969 22.5776C23.9007 22.643 23.6901 22.754 23.4459 22.9106C23.4189 22.928 23.3913 22.946 23.3637 22.9646C23.1681 23.0936 22.9191 22.8434 23.0481 22.6472C23.0661 22.619 23.0841 22.592 23.1015 22.5644C23.2551 22.3226 23.3649 22.1138 23.4297 21.9188C23.4645 21.8144 23.4867 21.7142 23.4957 21.6152C23.5023 21.5414 23.5023 21.4688 23.4951 21.395C23.4849 21.296 23.4621 21.1958 23.4261 21.0914C23.3595 20.8976 23.2479 20.69 23.0913 20.4494C23.0739 20.4224 23.0553 20.3954 23.0367 20.3678C22.9059 20.1728 23.1519 19.9196 23.3487 20.0468C23.3769 20.0648 23.4045 20.0828 23.4321 20.0996C23.6811 20.2556 23.8947 20.3654 24.0939 20.4296C24.2001 20.4638 24.3021 20.4848 24.4035 20.4926C24.4689 20.498 24.5337 20.498 24.5991 20.492C24.7005 20.483 24.8025 20.4614 24.908 20.426C25.1066 20.36 25.3196 20.2478 25.5662 20.0894C25.5932 20.072 25.6208 20.054 25.649 20.0354C25.844 19.9064 26.0936 20.1566 25.9646 20.3528C25.9538 20.369 25.9436 20.3846 25.9334 20.4002C25.9262 20.4122 25.9184 20.4236 25.9112 20.4356V20.4356Z"></path></svg>
