<svg width="32" height="32" viewBox="0 0 32 32" fill="currentColor" xmlns="http://www.w3.org/2000/svg">
<path fill-rule="evenodd" clip-rule="evenodd" d="M8 19C7.448 19 7 18.552 7 18L7 14C7 13.448 7.448 13 8 13C8.552 13 9 13.448 9 14L9 18C9 18.552 8.552 19 8 19Z"/>
<path fill-rule="evenodd" clip-rule="evenodd" d="M20 20C19.448 20 19 19.552 19 19L19 13C19 12.448 19.448 12 20 12C20.552 12 21 12.448 21 13L21 19C21 19.552 20.552 20 20 20Z"/>
<path fill-rule="evenodd" clip-rule="evenodd" d="M24 18C23.448 18 23 17.552 23 17L23 15C23 14.448 23.448 14 24 14C24.552 14 25 14.448 25 15L25 17C25 17.552 24.552 18 24 18Z"/>
<path fill-rule="evenodd" clip-rule="evenodd" d="M12 22C11.448 22 11 21.552 11 21L11 11C11 10.448 11.448 10 12 10C12.552 10 13 10.448 13 11L13 21C13 21.552 12.552 22 12 22Z"/>
<path fill-rule="evenodd" clip-rule="evenodd" d="M16 24C15.448 24 15 23.552 15 23L15 9C15 8.448 15.448 8 16 8C16.552 8 17 8.448 17 9L17 23C17 23.552 16.552 24 16 24Z"/>
</svg>
